<?xml version="1.0" standalone="no"?>
<!DOCTYPE svg PUBLIC "-//W3C//DTD SVG 20010904//EN"
 "http://www.w3.org/TR/2001/REC-SVG-20010904/DTD/svg10.dtd">
<svg version="1.0" xmlns="http://www.w3.org/2000/svg"
 width="1000.000000pt" height="1000.000000pt" viewBox="0 0 1000.000000 1000.000000"
 preserveAspectRatio="xMidYMid meet">

<g transform="translate(0.000000,1000.000000) scale(0.100000,-0.100000)"
fill="#ca2228" stroke="none">
<path d="M5335 7936 c-5 -15 -55 -400 -55 -420 0 -18 54 -23 65 -5 5 7 15 4
32 -7 65 -42 138 -37 185 13 64 69 63 190 -2 248 -24 21 -102 27 -149 10 -20
-7 -22 -5 -18 11 3 10 9 49 12 85 l7 67 -37 4 c-21 2 -38 0 -40 -6z m174 -232
c25 -32 27 -74 5 -117 -21 -40 -31 -47 -69 -47 -36 0 -48 7 -64 39 -17 31 -5
107 20 132 29 29 83 25 108 -7z"/>
<path d="M4515 7908 c-82 -11 -153 -23 -157 -26 -3 -4 -4 -18 -1 -32 4 -25 6
-26 61 -19 31 3 59 5 61 3 2 -2 14 -81 27 -175 12 -94 24 -172 26 -174 2 -3
20 -2 39 1 l35 6 -17 141 c-10 78 -21 159 -24 179 l-5 37 60 7 60 7 0 33 c0
19 -3 33 -7 33 -5 -1 -75 -10 -158 -21z"/>
<path d="M4825 7794 c-23 -24 -23 -25 -30 -5 -4 15 -15 21 -36 21 -28 0 -29
-1 -29 -52 0 -29 3 -97 7 -150 l6 -98 34 0 33 0 0 94 c0 79 3 97 21 120 12 15
30 26 44 26 30 0 35 8 28 43 -7 36 -45 37 -78 1z"/>
<path d="M4985 7806 c-11 -8 -16 -20 -12 -29 5 -14 16 -16 65 -11 54 6 60 5
76 -17 22 -32 20 -39 -10 -39 -94 0 -164 -48 -164 -112 0 -74 59 -104 150 -78
22 6 38 6 44 0 6 -6 25 -10 43 -10 l33 0 0 105 c0 168 -26 205 -140 205 -40 0
-74 -5 -85 -14z m140 -165 c8 -27 -15 -71 -41 -77 -66 -17 -89 61 -24 83 49
17 58 16 65 -6z"/>
<path d="M6092 7758 c-27 -27 -6 -68 35 -68 32 0 46 31 27 58 -17 24 -44 28
-62 10z"/>
<path d="M5712 7708 c2 -17 10 -24 33 -26 17 -1 47 -7 68 -12 30 -9 37 -15 37
-35 0 -24 -2 -25 -76 -25 -70 0 -78 -2 -105 -29 -31 -31 -38 -75 -18 -113 16
-30 72 -49 119 -42 31 5 44 3 53 -9 7 -9 23 -17 36 -19 23 -3 25 2 47 97 13
55 24 110 24 123 0 68 -65 112 -166 112 -52 0 -55 -1 -52 -22z m122 -175 c-9
-40 -33 -63 -64 -63 -31 0 -50 17 -50 45 0 33 20 45 72 45 48 0 48 0 42 -27z"/>
<path d="M4025 7691 c-53 -24 -72 -46 -55 -66 10 -13 17 -12 51 5 48 25 95 26
104 3 3 -10 2 -19 -2 -20 -5 -2 -36 -21 -70 -43 -65 -43 -79 -69 -68 -121 8
-34 48 -69 80 -69 12 0 44 11 70 26 26 14 54 23 62 20 8 -4 26 -3 40 0 29 8
28 10 -9 149 -27 102 -57 135 -120 135 -24 0 -61 -9 -83 -19z m131 -155 c10
-42 0 -70 -30 -85 -37 -18 -61 -4 -61 35 0 21 9 34 34 51 43 29 49 29 57 -1z"/>
<path d="M6010 7509 c-46 -146 -68 -189 -100 -189 -33 0 -50 -12 -50 -35 0
-26 17 -35 64 -35 41 0 80 30 105 78 22 44 104 302 98 308 -3 3 -20 7 -38 10
l-34 6 -45 -143z"/>
<path d="M3793 7619 c-67 -21 -103 -54 -103 -96 0 -55 33 -82 113 -92 91 -11
88 -65 -4 -77 -46 -6 -48 -8 -42 -33 3 -14 7 -28 9 -30 10 -12 115 23 145 48
28 24 34 35 34 70 0 58 -28 83 -99 89 -67 5 -97 29 -71 56 9 9 26 16 38 16 34
0 49 15 45 42 l-3 26 -62 -19z"/>
<path d="M6230 7580 c-26 -16 -5 -43 43 -55 58 -15 82 -35 73 -63 -6 -18 -11
-19 -39 -11 -58 16 -135 11 -157 -11 -65 -65 -14 -165 86 -165 24 0 44 -3 44
-7 0 -13 32 -38 48 -38 13 0 28 27 55 98 42 111 46 158 17 195 -26 33 -145 73
-170 57z m68 -176 c27 -8 28 -24 1 -58 -34 -43 -99 -31 -99 19 0 40 37 55 98
39z"/>
<path d="M3475 7496 c-114 -50 -121 -220 -13 -286 47 -28 105 -26 168 8 62 32
80 53 61 75 -11 14 -20 12 -74 -14 -74 -35 -86 -36 -117 -7 l-23 22 94 45 c52
25 96 47 98 48 2 1 -8 22 -22 46 -40 68 -106 92 -172 63z m87 -68 l21 -21 -57
-29 c-62 -31 -76 -30 -76 8 0 56 71 83 112 42z"/>
<path d="M6494 7353 c-31 -60 -63 -119 -71 -131 -8 -13 -13 -25 -11 -26 41
-27 61 -36 66 -31 3 3 27 43 52 88 25 46 56 87 69 93 30 15 62 4 80 -28 13
-23 11 -31 -32 -116 -26 -50 -47 -95 -47 -101 0 -6 13 -17 29 -26 29 -14 30
-14 49 18 41 66 92 182 92 210 0 20 -11 40 -34 63 -30 30 -40 34 -86 34 -45 0
-51 2 -46 18 5 13 -1 22 -19 30 -14 7 -28 12 -30 12 -2 0 -30 -48 -61 -107z"/>
<path d="M3257 7383 c-8 -10 -19 -31 -22 -46 -7 -26 -9 -27 -25 -12 -15 13
-23 14 -39 5 -12 -6 -21 -16 -21 -21 0 -15 141 -259 149 -259 5 0 37 19 59 36
2 1 -17 38 -42 82 -25 43 -46 90 -46 102 0 13 12 36 27 52 24 25 25 30 13 53
-16 29 -31 32 -53 8z"/>
<path d="M4845 7314 c-196 -20 -259 -28 -385 -50 -164 -30 -399 -94 -540 -149
-251 -97 -552 -270 -755 -435 -108 -86 -308 -283 -414 -405 -494 -572 -747
-1296 -716 -2050 3 -93 9 -190 13 -215 l7 -45 53 -3 53 -3 -8 103 c-12 151 -8
476 6 603 74 647 354 1218 831 1695 468 467 1010 730 1660 805 184 22 617 16
780 -10 433 -68 792 -205 1128 -432 555 -373 983 -940 1165 -1543 97 -321 138
-675 118 -1015 -6 -93 -11 -180 -11 -192 0 -21 4 -23 63 -23 34 0 67 4 73 8
20 12 37 279 31 471 -15 447 -112 831 -317 1246 -144 293 -305 519 -530 745
-481 482 -1081 786 -1730 876 -101 14 -493 26 -575 18z"/>
<path d="M7109 7205 c-24 -36 -47 -65 -50 -65 -3 0 -11 11 -17 25 -26 56 -120
82 -180 51 -42 -22 -79 -67 -92 -113 -27 -90 19 -162 109 -171 44 -4 49 -7 41
-22 -8 -14 -4 -22 16 -35 33 -21 22 -33 167 181 127 187 121 167 61 206 -7 5
-28 -18 -55 -57z m-110 -71 c12 -15 21 -32 21 -38 0 -23 -60 -106 -84 -117
-32 -15 -77 7 -90 42 -32 92 96 186 153 113z"/>
<path d="M2959 7203 c-29 -18 -59 -62 -59 -87 0 -20 -10 -20 -25 0 -10 15 -14
14 -38 -7 l-26 -24 122 -172 c67 -95 124 -173 127 -173 3 0 17 10 33 23 l27
22 -40 60 -40 60 44 12 c110 32 138 149 60 243 -50 59 -130 78 -185 43z m91
-68 c81 -42 77 -175 -6 -175 -36 0 -59 15 -83 54 -27 43 -27 84 1 113 25 27
48 29 88 8z"/>
<path d="M7184 6989 c-44 -12 -100 -73 -112 -120 -19 -74 18 -146 92 -180 53
-24 88 -24 136 1 128 65 115 247 -22 296 -39 15 -53 15 -94 3z m116 -79 c13
-13 20 -33 20 -56 0 -50 -62 -114 -111 -114 -90 0 -94 117 -4 171 39 24 70 24
95 -1z"/>
<path d="M2663 6975 c-34 -14 -53 -42 -63 -90 -4 -22 -12 -31 -30 -33 -56 -6
-72 -14 -90 -45 -11 -17 -20 -42 -20 -54 0 -25 -10 -29 -26 -13 -7 7 -17 3
-32 -13 l-23 -24 105 -109 104 -109 27 26 26 25 -71 77 c-79 87 -90 124 -46
152 34 22 55 10 138 -79 l66 -71 28 27 27 27 -71 77 c-54 58 -72 85 -72 106 0
32 39 63 68 54 10 -4 52 -40 92 -82 l73 -75 29 28 28 27 -77 78 c-69 69 -124
109 -150 108 -4 -1 -22 -7 -40 -15z"/>
<path d="M4830 6763 c-489 -48 -934 -217 -1305 -496 -123 -93 -367 -344 -470
-484 -313 -427 -475 -917 -475 -1440 0 -150 16 -336 31 -365 9 -17 50 -18 644
-18 l635 0 0 441 0 441 28 24 c15 13 234 191 487 395 253 204 490 396 528 427
44 35 73 53 85 50 11 -3 265 -204 565 -447 l547 -442 2 -442 3 -442 631 -3
632 -2 5 22 c29 115 38 458 17 623 -52 422 -208 830 -440 1155 -385 539 -1053
927 -1722 999 -89 10 -345 12 -428 4z m450 -763 c142 -110 263 -200 269 -200
7 0 11 50 13 143 l3 142 150 0 150 0 5 -275 c3 -151 9 -282 13 -290 5 -8 123
-109 263 -225 140 -115 276 -228 301 -250 l45 -40 -82 -103 c-45 -57 -86 -102
-91 -100 -4 2 -295 228 -646 503 -393 308 -646 500 -660 500 -14 0 -236 -168
-609 -460 -322 -253 -592 -463 -599 -468 -9 -5 -41 27 -101 99 l-87 106 24 23
c46 44 1362 1095 1371 1095 5 0 126 -90 268 -200z"/>
<path d="M7542 6614 l-162 -137 26 -28 27 -28 39 32 c79 64 70 63 132 13 31
-25 71 -48 90 -51 71 -14 146 50 146 126 0 38 -33 96 -97 167 l-38 43 -163
-137z m202 3 c31 -41 33 -80 6 -107 -32 -32 -81 -26 -120 13 l-32 32 54 47
c29 26 56 48 60 48 4 0 18 -15 32 -33z"/>
<path d="M2140 6608 c-41 -51 -76 -95 -78 -98 -4 -11 318 -271 327 -265 14 8
164 195 160 198 -2 1 -13 10 -25 19 -20 17 -22 16 -78 -52 -63 -77 -61 -76
-123 -22 l-32 28 50 63 c49 60 50 63 33 82 -9 10 -20 19 -25 19 -4 0 -29 -27
-56 -60 -26 -33 -50 -60 -53 -60 -3 0 -23 15 -45 34 l-39 33 40 49 c72 89 69
82 49 104 -10 11 -21 20 -24 20 -3 0 -40 -41 -81 -92z"/>
<path d="M7816 6362 c-15 -17 -13 -21 24 -57 41 -40 51 -74 27 -94 -11 -8 -18
-6 -33 10 -38 44 -97 79 -130 79 -51 0 -89 -38 -89 -90 0 -38 6 -47 45 -82 24
-21 44 -48 45 -59 1 -11 9 -27 17 -36 15 -14 23 -11 92 37 86 59 136 111 136
141 0 31 -28 91 -58 122 -41 43 -57 49 -76 29z m-27 -161 l34 -28 -35 -21
c-46 -29 -62 -28 -87 4 -25 32 -26 38 -5 58 23 23 55 19 93 -13z"/>
<path d="M1980 6168 c-63 -43 -109 -160 -65 -166 16 -2 26 10 48 53 22 45 31
55 52 55 29 0 31 -11 10 -70 -25 -70 -20 -114 16 -144 33 -28 64 -32 102 -15
29 13 48 44 57 96 3 21 11 37 18 36 15 -4 46 43 38 56 -10 16 -181 111 -212
117 -21 4 -39 -1 -64 -18z m158 -118 c12 -12 22 -29 22 -38 0 -26 -29 -62 -50
-62 -28 0 -52 28 -44 54 23 74 34 81 72 46z"/>
<path d="M7945 6049 c-49 -28 -109 -62 -132 -75 l-42 -24 20 -34 20 -34 77 44
c90 51 131 56 160 19 23 -29 30 -30 60 -7 21 16 21 19 7 39 -9 13 -32 25 -52
29 -37 7 -37 7 -15 22 20 13 21 16 6 43 -8 16 -16 29 -17 29 -1 0 -42 -23 -92
-51z"/>
<path d="M1823 5875 c-42 -18 -66 -65 -61 -121 3 -38 1 -43 -14 -38 -12 3 -22
-4 -32 -24 l-15 -29 133 -62 c73 -33 137 -61 143 -61 10 0 37 59 30 66 -2 2
-39 20 -82 39 -94 43 -115 60 -115 92 0 74 49 81 171 24 l84 -39 18 35 c10 19
17 36 15 37 -21 14 -190 85 -213 90 -17 3 -44 -1 -62 -9z"/>
<path d="M8116 5862 c-15 -17 -15 -20 -1 -32 21 -18 45 -64 45 -88 0 -11 -7
-26 -17 -33 -14 -12 -17 -12 -21 1 -9 27 -93 108 -118 114 -35 9 -90 -19 -104
-55 -16 -37 -7 -70 31 -114 20 -23 29 -41 25 -53 -4 -11 1 -28 11 -41 l18 -21
90 41 c119 55 145 80 145 136 0 55 -19 100 -57 136 -29 27 -30 27 -47 9z m-65
-143 c34 -37 36 -45 10 -59 -31 -16 -58 -12 -81 12 -23 25 -26 48 -8 66 20 20
49 13 79 -19z"/>
<path d="M1540 5564 c-6 -14 -10 -31 -10 -38 0 -6 60 -31 136 -56 76 -25 147
-55 160 -67 30 -28 32 -80 3 -117 -29 -37 -81 -34 -230 14 -68 21 -127 36
-131 32 -4 -4 -10 -21 -14 -38 l-6 -30 134 -42 c143 -45 201 -51 248 -27 59
31 93 116 79 199 -13 76 -57 101 -347 192 -7 2 -17 -8 -22 -22z"/>
<path d="M8391 5511 c-11 -7 -11 -17 2 -62 9 -30 13 -57 9 -60 -4 -4 -72 -25
-152 -48 -80 -23 -153 -44 -162 -47 -20 -6 -22 -21 -9 -57 l10 -25 167 49 c92
27 171 46 175 42 3 -5 14 -31 23 -60 17 -51 17 -52 47 -41 17 6 28 16 26 22
-3 7 -21 68 -41 137 -21 68 -39 132 -42 142 -6 18 -30 22 -53 8z"/>
<path d="M1410 5145 c0 -18 15 -35 64 -69 35 -26 66 -46 70 -46 12 0 6 68 -7
79 -8 6 -39 22 -70 36 l-57 25 0 -25z"/>
<path d="M8263 5091 c-68 -15 -126 -30 -129 -34 -4 -3 -4 -21 0 -40 l6 -33
148 31 c93 19 147 35 146 43 -1 7 -2 23 -2 37 -2 31 -9 31 -169 -4z"/>
<path d="M1386 5038 c9 -32 17 -40 84 -87 l60 -42 0 40 c0 40 -1 41 -70 76
-38 19 -72 35 -75 35 -4 0 -3 -10 1 -22z"/>
<path d="M8420 4950 c0 -22 40 -47 103 -64 38 -10 70 -16 73 -13 4 3 2 18 -3
33 -10 30 -29 38 -120 47 -31 4 -53 2 -53 -3z"/>
<path d="M8443 4826 c4 -10 7 -19 7 -21 0 -2 32 -14 71 -25 39 -12 77 -24 84
-26 16 -6 7 52 -10 66 -7 6 -46 14 -86 17 -66 6 -72 5 -66 -11z"/>
<path d="M4760 4276 l0 -314 243 -4 c133 -2 250 0 260 4 16 8 17 33 17 318 l0
310 -260 0 -260 0 0 -314z"/>
<path d="M1867 3816 c-57 -16 -114 -59 -139 -107 -36 -70 -39 -131 -36 -807
l3 -658 30 -59 c36 -70 90 -109 174 -125 77 -14 6272 -14 6340 1 79 17 134 58
167 126 l29 58 0 700 0 700 -24 48 c-13 26 -40 61 -60 78 -77 64 173 59 -3285
58 -2536 0 -3160 -3 -3199 -13z m4203 -86 c215 -52 381 -181 470 -365 52 -105
69 -183 77 -336 20 -413 -128 -692 -434 -814 -197 -79 -502 -79 -719 -1 -137
50 -264 153 -333 270 -101 170 -143 426 -106 639 74 427 369 649 840 632 72
-3 154 -13 205 -25z m1585 19 c222 -27 369 -115 440 -265 29 -61 58 -175 47
-186 -12 -12 -432 -33 -441 -22 -4 5 -15 30 -25 56 -24 66 -80 113 -150 128
-127 26 -226 -23 -226 -111 0 -44 38 -83 98 -98 20 -6 116 -30 212 -55 273
-69 389 -122 478 -220 163 -178 141 -474 -48 -649 -116 -107 -235 -153 -434
-166 -221 -14 -426 16 -547 80 -68 37 -151 121 -191 195 -39 73 -82 235 -65
250 11 11 282 34 401 34 45 0 45 0 56 -42 27 -106 79 -172 156 -199 60 -21
171 -16 221 9 83 43 116 135 71 202 -30 45 -87 72 -246 116 -206 58 -252 73
-350 121 -116 57 -181 117 -225 210 -29 62 -32 76 -31 163 1 108 14 151 70
236 112 169 399 253 729 213z m-5187 -601 l2 -578 363 0 c199 0 368 -4 375 -8
9 -7 12 -52 10 -193 l-3 -184 -604 -3 c-477 -2 -606 0 -613 10 -9 16 -11 1522
-1 1532 4 3 110 5 237 4 l231 -3 3 -577z m1920 570 c11 -15 572 -1510 572
-1526 0 -18 -484 -17 -497 1 -5 6 -22 57 -38 112 -15 55 -32 108 -37 118 -8
15 -31 17 -267 17 -207 0 -261 -3 -270 -14 -6 -7 -25 -60 -42 -117 -17 -57
-36 -110 -41 -116 -8 -10 -70 -13 -249 -13 -132 0 -239 2 -239 5 0 3 498 1332
569 1518 l11 27 259 0 c195 0 261 -3 269 -12z"/>
<path d="M5703 3371 c-103 -35 -158 -104 -189 -237 -19 -82 -21 -252 -4 -343
34 -186 146 -278 326 -269 138 7 221 63 265 178 44 117 49 353 10 480 -26 84
-74 140 -153 179 -51 26 -73 31 -132 31 -41 -1 -93 -8 -123 -19z"/>
<path d="M4034 3047 l-80 -262 159 -3 c88 -1 161 -1 163 1 5 5 -146 509 -155
519 -3 4 -42 -111 -87 -255z"/>
</g>
</svg>
