<svg version="1.1" id="Layer_1" xmlns="http://www.w3.org/2000/svg" xmlns:xlink="http://www.w3.org/1999/xlink" x="0px" y="0px"
	 width="100%" viewBox="0 0 1000 1000" enable-background="new 0 0 1000 1000" xml:space="preserve">
<path fill="#FFFFFF" opacity="1.000000" stroke="none" 
	d="
M667.000000,1001.000000 
	C444.666656,1001.000000 222.833328,1001.000000 1.000000,1001.000000 
	C1.000000,667.666687 1.000000,334.333344 1.000000,1.000000 
	C334.333344,1.000000 667.666687,1.000000 1001.000000,1.000000 
	C1001.000000,334.333344 1001.000000,667.666687 1001.000000,1001.000000 
	C889.833313,1001.000000 778.666687,1001.000000 667.000000,1001.000000 
M406.512939,503.991669 
	C438.307159,478.330719 470.101410,452.669739 502.099152,426.844543 
	C503.540802,427.872040 505.046967,428.819458 506.412170,429.938812 
	C516.033569,437.827515 525.569397,445.821442 535.241333,453.647400 
	C548.448547,464.333923 561.739563,474.917023 575.018860,485.514160 
	C584.590088,493.152161 594.039734,500.956573 603.847961,508.278931 
	C610.883118,513.531067 614.634949,519.225464 614.284485,528.845520 
	C613.417542,552.642822 614.000000,576.492920 614.000000,600.321838 
	C614.000000,602.098633 614.000000,603.875427 614.000000,606.000000 
	C616.319580,606.000000 618.118164,606.000000 619.916687,606.000000 
	C644.412109,606.000000 668.907593,606.000000 693.403015,606.000000 
	C708.066956,606.000000 722.730896,605.999329 737.394836,606.000549 
	C739.572083,606.000732 741.700562,606.317078 742.047180,603.032043 
	C742.886536,595.075806 744.843262,587.145630 744.818359,579.209656 
	C744.770813,564.024414 744.693726,548.706482 742.720459,533.694458 
	C740.360474,515.739929 735.345581,498.285339 729.202698,481.106171 
	C718.572693,451.378845 702.377563,425.165344 681.294373,401.943726 
	C669.786743,389.268951 656.457642,378.559875 642.412170,368.699890 
	C624.894043,356.402100 606.093018,346.581909 586.256470,338.762573 
	C566.219177,330.863983 545.336670,325.987885 523.904907,324.157776 
	C513.295227,323.251801 502.526276,323.614594 491.862732,324.114716 
	C482.397797,324.558624 472.954468,325.796875 463.544586,327.016296 
	C440.205231,330.040833 418.024261,337.301361 396.818542,347.156586 
	C366.121460,361.422913 339.882660,381.719513 317.823425,407.541595 
	C301.086060,427.133942 287.550903,448.560242 277.305511,472.191803 
	C264.546234,501.621765 259.011536,532.545715 258.154053,564.353088 
	C257.857727,575.344971 259.082886,586.409119 260.100372,597.395142 
	C260.885803,605.875366 261.410675,606.000000 270.300568,606.000000 
	C308.626770,606.000000 346.953003,606.000000 385.279205,606.000000 
	C387.060028,606.000000 388.840881,606.000000 391.000000,606.000000 
	C391.000000,603.723633 391.000000,601.924805 391.000000,600.125916 
	C391.000000,573.964111 391.042816,547.802124 390.946869,521.640686 
	C390.934601,518.296021 391.626160,515.839600 394.571991,513.783203 
	C398.585571,510.981445 402.209137,507.620941 406.512939,503.991669 
M354.500000,618.000000 
	C300.681946,618.000000 246.863861,617.961304 193.045883,618.027405 
	C179.712173,618.043823 170.193451,628.298218 170.113312,640.527161 
	C169.825012,684.512634 169.771301,728.503052 170.134338,772.487427 
	C170.248840,786.361267 179.985031,795.905029 193.632462,795.913208 
	C402.905548,796.037781 612.178711,796.002686 821.451904,795.993469 
	C834.302307,795.992920 844.988586,785.280334 844.993591,772.412170 
	C845.010437,728.758057 844.993103,685.103943 845.004150,641.449829 
	C845.007568,628.153076 833.731323,617.928589 821.366028,617.936279 
	C666.077393,618.033386 510.788696,618.000000 354.500000,618.000000 
M204.998886,595.602722 
	C205.388885,598.974365 205.778870,602.346069 206.171326,605.738892 
	C210.279846,605.738892 214.040710,605.738892 217.912491,605.738892 
	C208.991669,523.532532 228.025879,449.647614 281.641571,385.885223 
	C334.908569,322.537445 402.680878,287.094757 485.542236,283.221313 
	C566.373840,279.442780 637.712219,304.304077 696.202454,361.005096 
	C765.244751,427.935303 793.758545,510.005096 782.881775,605.773193 
	C788.517578,605.773193 793.609375,605.773193 799.217957,605.773193 
	C799.508118,601.002380 799.740845,596.435425 800.073059,591.875854 
	C800.681702,583.523071 801.881836,575.172485 801.848755,566.824890 
	C801.812439,557.639709 801.070129,548.407166 799.906006,539.288330 
	C798.154114,525.566040 796.660767,511.712158 793.465576,498.293304 
	C786.877502,470.625366 776.878784,444.151733 762.773987,419.306915 
	C750.612671,397.885529 736.196472,378.076294 718.859985,360.689545 
	C707.290771,349.086792 694.531799,338.577728 681.670166,328.380280 
	C666.505066,316.356445 649.845520,306.488617 632.477966,297.924194 
	C611.937256,287.795013 590.571777,279.673370 568.105469,275.243866 
	C552.924072,272.250671 537.445801,270.140320 522.007324,269.253479 
	C507.314850,268.409485 492.487518,269.378784 477.746704,270.104156 
	C468.446045,270.561859 459.065735,271.379791 449.947693,273.182159 
	C426.583252,277.800598 403.680695,283.914978 381.688934,293.523346 
	C353.818695,305.699982 328.231628,321.418030 305.965607,341.924744 
	C292.024323,354.764526 279.242676,369.033936 267.120972,383.641327 
	C245.784988,409.352448 230.116150,438.421051 219.402924,470.123749 
	C213.570206,487.384094 208.976257,504.918671 206.992096,523.073853 
	C206.245285,529.907043 205.017181,536.724976 204.818954,543.573242 
	C204.348312,559.833191 204.350616,576.107117 204.215454,592.375854 
	C204.209076,593.142761 204.720505,593.914001 204.998886,595.602722 
M529.000000,549.545532 
	C529.000000,546.779785 529.000000,544.014038 529.000000,541.309875 
	C511.344727,541.309875 494.301483,541.309875 477.307220,541.309875 
	C477.307220,562.992676 477.307220,584.364197 477.307220,606.000000 
	C493.064758,606.000000 508.518158,605.879333 523.967285,606.082886 
	C527.943970,606.135315 529.127075,604.909912 529.081726,600.953491 
	C528.889282,584.149597 529.000000,567.342224 529.000000,549.545532 
M238.572647,329.969299 
	C244.040436,336.142059 249.390259,342.424835 255.011703,348.454315 
	C259.888794,353.685425 260.027069,353.560913 264.957855,348.548584 
	C265.283447,348.217621 265.534424,347.813232 265.956238,347.266602 
	C261.645050,342.678375 257.351318,338.107697 253.056320,333.538177 
	C250.483780,330.801178 250.513702,328.102325 253.108658,325.379913 
	C255.844543,322.509674 258.283295,324.307220 260.425964,326.059875 
	C262.179230,327.493988 263.451111,329.501495 265.038330,331.157074 
	C267.977264,334.222534 270.990753,337.216553 273.551056,339.812378 
	C275.887360,337.621948 277.905121,335.730225 279.890411,333.868896 
	C275.733582,329.222076 271.643433,324.488678 267.367615,319.929413 
	C264.744293,317.132172 264.485443,314.544891 267.503387,312.068817 
	C270.247498,309.817413 272.446136,311.069397 274.803101,313.193817 
	C279.556763,317.478424 284.574188,321.470428 289.482788,325.583130 
	C289.100250,326.093445 288.717712,326.603760 288.335175,327.114075 
	C290.478882,324.875824 292.622589,322.637543 295.058197,320.094482 
	C289.092957,314.626373 283.423615,308.769440 277.066284,303.791046 
	C270.928558,298.984589 262.733276,302.452515 260.986938,309.946747 
	C260.592926,311.637573 260.038025,313.290985 259.588989,314.851166 
	C250.620911,315.244568 248.308167,317.249420 245.699265,326.843903 
	C241.547562,322.900787 241.366196,328.692444 238.572647,329.969299 
M717.463684,287.042999 
	C719.556274,284.088806 721.648865,281.134613 723.878723,277.986633 
	C720.687378,276.143951 718.485046,274.872314 716.070557,273.478180 
	C712.847717,277.973816 709.906921,282.075897 706.848083,286.342743 
	C702.726074,278.771149 696.571411,275.371460 690.350647,277.307678 
	C682.629028,279.711029 675.508789,286.159851 676.956055,298.507751 
	C677.618713,304.161743 682.482056,307.964020 690.966125,310.354980 
	C692.907166,312.357574 694.848267,314.360199 697.345703,316.936829 
	C704.206299,306.744629 710.629639,297.201935 717.463684,287.042999 
M560.115173,226.660980 
	C554.949707,220.237732 548.418518,220.086975 540.807983,223.243698 
	C541.546021,217.571518 542.190613,212.617599 542.894409,207.208389 
	C540.158203,206.717438 537.372375,206.217590 534.166992,205.642487 
	C532.101868,220.927246 530.123474,235.569870 528.103699,250.518967 
	C531.039612,251.046768 534.021423,254.201782 536.832642,250.045761 
	C547.346924,257.553680 555.897217,253.927551 559.859436,247.193680 
	C563.591064,240.851624 563.321106,233.984650 560.115173,226.660980 
M154.376968,450.059601 
	C162.910736,453.039001 171.508423,455.850372 179.953445,459.063049 
	C184.752945,460.888855 186.558670,465.133759 185.006393,469.349701 
	C183.292816,474.003784 178.930435,476.012177 173.880264,474.432983 
	C165.104050,471.688568 156.334946,468.921539 147.426483,466.121124 
	C146.573944,468.810638 145.707245,471.544830 144.568298,475.137878 
	C155.288086,478.153442 165.571289,481.531372 176.089569,483.836823 
	C183.269348,485.410553 189.432083,480.023621 192.185730,471.346405 
	C194.873993,462.875153 192.670410,455.216522 185.476608,452.059113 
	C175.763123,447.795868 165.642807,444.459564 155.056244,440.484924 
	C154.495026,444.083679 154.040695,446.997009 154.376968,450.059601 
M302.946869,322.647400 
	C304.140961,324.504913 305.335022,326.362427 306.628113,328.373932 
	C309.356812,326.259460 311.659241,324.475281 313.901672,322.737610 
	C312.119659,320.135620 310.453186,317.735931 308.824585,315.310822 
	C307.934357,313.985168 307.108276,312.616455 306.635162,311.869843 
	C310.304291,309.593445 314.067444,307.697937 317.306580,305.139099 
	C321.451019,301.865112 320.206116,296.879272 319.867981,292.600159 
	C319.333099,285.830933 311.992767,278.897156 305.279541,278.008301 
	C298.393555,277.096588 293.734955,280.581451 289.664581,289.691467 
	C288.966553,288.825043 288.268555,287.958618 287.549011,287.065491 
	C286.961029,287.607574 286.547943,288.255096 285.970886,288.477905 
	C281.567200,290.178131 281.294739,292.639679 284.003815,296.300903 
	C290.289856,304.796204 296.365356,313.447388 302.946869,322.647400 
M224.022202,340.463867 
	C225.348755,338.634308 226.675308,336.804749 228.292465,334.574402 
	C226.324417,333.010040 224.414459,331.491852 222.550079,330.009888 
	C216.744034,337.150330 211.348267,343.786194 205.764786,350.652893 
	C211.807632,355.510956 217.441544,359.968811 222.994812,364.524933 
	C228.476791,369.022491 233.877243,373.619415 239.568604,378.386475 
	C245.742844,370.872559 251.433334,363.947357 257.308746,356.797119 
	C256.354828,356.258301 255.512070,356.030701 255.052872,355.482056 
	C252.334015,352.233765 250.497681,352.175598 248.083237,356.175201 
	C245.912399,359.771271 242.572571,362.661652 239.559464,366.077484 
	C236.638870,363.827118 233.875336,361.697754 230.958282,359.450134 
	C234.407394,355.000366 237.718796,350.728271 239.993622,347.793488 
	C238.475983,345.100586 237.413528,343.215393 236.169861,341.008636 
	C231.999496,345.997589 228.580521,350.087677 225.089951,354.263397 
	C222.438553,352.108398 220.088684,350.198486 217.641861,348.209747 
	C219.815979,345.537598 221.666611,343.263000 224.022202,340.463867 
M782.033997,337.543121 
	C778.669128,333.330780 775.304199,329.118408 771.735229,324.650574 
	C762.285095,332.769623 753.157776,340.467102 744.200256,348.357361 
	C738.116821,353.716003 738.221680,353.838593 743.863220,359.317780 
	C744.066833,359.515503 744.366699,359.614136 744.886780,359.909576 
	C745.851379,358.853180 746.731995,357.584930 747.890869,356.668488 
	C755.617981,350.557678 755.637451,350.581818 763.082581,356.596069 
	C768.817200,361.228546 775.593994,361.661713 781.841980,356.545685 
	C787.093262,352.245789 787.267578,344.876160 782.033997,337.543121 
M722.715332,334.000000 
	C723.546387,334.000000 724.394226,333.891296 725.205811,334.016876 
	C732.880310,335.204437 740.404114,325.979736 740.979675,318.497223 
	C741.548462,311.103607 734.668518,302.247162 727.546082,301.017578 
	C719.005188,299.543091 708.111938,306.742279 707.024536,314.668457 
	C705.699524,324.326691 712.086243,332.968018 722.715332,334.000000 
M207.796112,382.302917 
	C201.402954,380.528717 196.525986,383.262878 193.446426,388.388672 
	C191.305252,391.952576 190.643906,396.405518 189.336792,400.414246 
	C191.811417,401.124390 193.172623,401.515015 194.715515,401.957764 
	C195.355118,400.907410 196.040253,399.997742 196.498642,398.985382 
	C197.499100,396.775787 198.101242,394.324249 199.426682,392.347351 
	C200.177185,391.227966 202.037552,390.852692 203.398041,390.142273 
	C203.575684,391.535339 204.091537,392.989716 203.852692,394.307281 
	C203.482635,396.348694 202.829636,398.415009 201.887772,400.262299 
	C199.019455,405.887817 202.279144,412.681610 209.307297,414.688293 
	C214.273071,416.106140 219.570770,412.024048 221.011002,405.813354 
	C221.448837,403.925323 221.499176,401.702515 222.572327,400.263397 
	C224.235031,398.033691 226.623322,396.345093 229.185318,393.983337 
	C221.495621,389.868378 214.951721,386.366577 207.796112,382.302917 
M365.014923,255.516525 
	C364.316650,254.674316 363.685364,253.763931 362.908997,253.001190 
	C358.575439,248.743835 350.372925,249.194839 345.985229,251.974731 
	C339.509613,256.077454 338.451447,262.352631 339.049927,269.193329 
	C339.491608,274.241821 345.240906,280.735291 349.786041,282.015167 
	C358.994781,284.608276 365.551453,279.753510 372.398804,274.307892 
	C371.076111,272.385162 369.906555,270.685059 368.754578,269.010498 
	C355.647369,276.459259 353.365662,276.738190 350.340851,271.272736 
	C354.610504,269.315552 358.909485,267.442383 363.121521,265.390808 
	C369.134308,262.462128 369.183807,262.111023 365.014923,255.516525 
M796.186096,440.327148 
	C796.772949,442.911499 797.359741,445.495850 798.036621,448.476685 
	C805.071167,445.091370 811.403015,442.201965 817.584961,439.021057 
	C822.866882,436.303223 825.543579,431.786652 823.775574,426.495239 
	C822.289429,422.047211 819.164124,418.098175 816.421204,414.167847 
	C815.976013,413.529907 812.927368,413.630402 812.523865,414.282104 
	C811.832458,415.399078 811.821472,417.411621 812.359375,418.699554 
	C813.088806,420.445984 814.693359,421.805725 815.763672,423.435608 
	C817.653381,426.313202 817.275269,428.610260 814.329651,429.789642 
	C811.322388,426.446106 808.662354,423.152710 805.644958,420.228119 
	C802.614075,417.290405 798.957581,417.276978 795.174377,418.937653 
	C791.490234,420.554901 790.302429,423.276581 789.836792,427.278015 
	C789.122681,433.414368 794.282593,435.705780 796.186096,440.327148 
M171.066269,433.689606 
	C172.001205,434.785919 172.728287,436.274719 173.911850,436.901550 
	C176.902710,438.485504 180.118820,439.638000 183.208374,441.043152 
	C188.490753,443.445587 193.745377,445.909027 199.224136,448.445160 
	C200.645218,445.632477 201.866394,443.215424 203.121017,440.732208 
	C202.265030,440.229980 201.603226,439.786041 200.895248,439.435272 
	C195.805435,436.913574 190.626556,434.557678 185.638153,431.850250 
	C182.317169,430.047821 181.289124,426.809235 183.246658,423.651398 
	C184.911758,420.965332 187.690216,420.186554 190.924255,421.931274 
	C193.903397,423.538452 197.180862,424.581665 200.236679,426.059906 
	C208.096603,429.861969 208.080383,429.905243 211.828156,422.491699 
	C211.955414,422.239960 211.844299,421.867676 211.844299,421.370422 
	C208.845108,419.940186 205.809433,418.408661 202.704041,417.034760 
	C199.452927,415.596375 196.142395,414.290649 192.844482,412.960052 
	C186.197418,410.278198 177.500076,412.313843 176.980392,420.969147 
	C176.831985,423.440796 176.957687,425.928864 176.957687,428.409424 
	C176.623856,428.244690 176.290009,428.079926 175.956177,427.915192 
	C174.465790,429.614319 172.975388,431.313446 171.066269,433.689606 
M783.970642,370.458893 
	C789.945068,376.462341 789.945068,376.462341 786.115051,379.918671 
	C784.420349,378.117828 782.909180,376.051208 780.963928,374.545288 
	C777.430298,371.809784 773.902466,368.634308 768.762573,370.692169 
	C765.268188,372.091125 762.513489,373.932678 761.951660,378.149170 
	C761.248413,383.426239 763.701355,386.963104 767.593262,389.946594 
	C768.687805,390.785645 770.001770,391.592346 770.628601,392.735443 
	C771.993286,395.224579 772.980591,397.920593 774.124634,400.537781 
	C779.913940,396.482391 784.553650,393.207001 789.219788,389.969696 
	C795.756165,385.434937 798.012817,379.549225 794.847290,373.100708 
	C793.308716,369.966461 790.738586,367.137207 788.051514,364.858582 
	C786.826294,363.819550 783.634888,363.610291 782.299011,364.489288 
	C779.159546,366.555206 781.970154,368.311340 783.970642,370.458893 
M667.502136,295.825287 
	C670.389038,290.015717 673.108337,284.114594 676.215759,278.425446 
	C678.718445,273.843353 679.243530,269.135956 676.284485,265.020142 
	C673.016724,260.474762 668.079773,258.875824 663.351013,260.248596 
	C661.247009,257.787354 659.402039,255.629135 656.699280,252.467514 
	C651.086304,262.956207 646.099426,272.274902 640.963623,281.871857 
	C643.661255,283.269714 646.082092,284.524139 648.889709,285.978973 
	C649.912537,284.373230 651.015076,282.786987 651.969299,281.116058 
	C654.376038,276.901489 656.583923,272.567200 659.131348,268.441315 
	C660.699524,265.901520 663.339417,264.927124 665.959167,266.596283 
	C668.619202,268.291138 670.175415,270.774780 668.377747,274.173737 
	C666.634827,277.469177 665.256348,280.981262 663.285828,284.127625 
	C658.668335,291.500427 658.563599,291.434784 666.461426,295.150848 
	C666.611816,295.221558 666.757446,295.302460 667.502136,295.825287 
M509.109650,229.954346 
	C506.542542,230.379318 503.898499,230.547073 501.425446,231.286591 
	C497.198395,232.550613 493.515930,238.292984 494.007599,242.331573 
	C494.579987,247.033386 498.473602,251.079224 503.083099,250.912460 
	C509.273895,250.688446 515.443298,249.872101 521.997375,249.275864 
	C521.997375,242.367935 522.179565,235.234055 521.930786,228.115250 
	C521.775146,223.663757 519.374207,219.991394 514.949158,219.189774 
	C510.763794,218.431580 506.307953,218.686493 502.023590,219.074921 
	C496.564362,219.569885 496.083221,221.118881 499.399933,225.734207 
	C504.073303,225.614426 509.385681,222.203522 513.241577,228.356003 
	C511.886749,228.869751 510.875397,229.253250 509.109650,229.954346 
M578.304077,227.000031 
	C576.346680,227.000031 574.389282,227.000031 572.219971,227.000031 
	C572.219971,229.138046 572.219971,230.873505 572.219971,232.582474 
	C584.640686,234.205963 584.640686,234.205963 585.531494,239.001343 
	C581.845398,239.001343 578.178955,238.755814 574.557800,239.056519 
	C568.509827,239.558701 565.431519,242.485260 564.088379,248.157349 
	C563.276794,251.584442 566.614746,257.594116 570.039551,258.407806 
	C576.244446,259.882050 582.580811,260.804413 588.868286,261.923889 
	C589.123230,261.969330 589.438599,261.675568 589.905457,261.454926 
	C590.921509,257.003845 591.984802,252.449631 592.998840,247.884460 
	C596.246948,233.261429 594.616211,230.608246 580.207520,227.018250 
	C579.894043,226.940155 579.545410,227.003281 578.304077,227.000031 
M635.863647,244.363571 
	C631.716187,243.419891 627.568726,242.476212 623.145386,241.469757 
	C623.145386,244.252426 623.145386,245.881500 623.145386,247.462372 
	C635.213379,251.423431 635.213379,251.423431 634.310791,255.799683 
	C631.478027,255.201096 628.667419,254.276672 625.806519,254.078308 
	C621.241699,253.761826 616.460022,253.609238 613.873230,258.591156 
	C609.777710,266.478668 614.350952,273.900818 623.235291,274.031830 
	C625.116333,274.059570 627.202148,274.058624 628.818481,274.843445 
	C631.084106,275.943512 632.998291,277.767365 635.469788,279.580139 
	C638.222351,272.399933 640.791687,266.133698 643.027405,259.750610 
	C645.587097,252.442520 643.572083,248.158585 635.863647,244.363571 
M403.684631,238.050171 
	C406.782928,237.222702 409.937317,234.310028 413.455353,238.472992 
	C409.533966,241.095795 405.997009,243.673981 402.255981,245.910751 
	C397.397827,248.815414 398.708008,253.455017 399.346619,257.365906 
	C399.929657,260.936432 403.050110,263.618469 406.925201,262.882050 
	C413.844025,261.567139 420.627899,259.539886 427.458588,257.773376 
	C427.675873,257.717194 427.787781,257.253510 427.938660,256.972351 
	C426.562408,251.494415 425.475891,245.921402 423.719025,240.568390 
	C422.292480,236.221878 421.165070,231.500717 415.572723,229.930801 
	C409.026184,228.093033 401.299530,230.543121 396.493683,236.411758 
	C397.406555,241.479126 400.167145,240.157074 403.684631,238.050171 
M846.077515,451.412811 
	C845.849121,448.374481 844.800720,447.408173 841.537476,448.643433 
	C838.994568,449.606018 837.403809,449.950226 838.889526,453.176453 
	C840.016602,455.623718 840.386230,458.419800 841.144775,461.254242 
	C840.241333,461.782349 839.486511,462.437866 838.613464,462.700806 
	C829.340271,465.493317 820.090454,468.382263 810.734436,470.869446 
	C808.089294,471.572632 806.123108,471.702057 807.552307,475.143097 
	C808.688965,477.879822 808.447815,481.129669 813.564819,479.354858 
	C823.283142,475.984131 833.353943,473.629395 843.582275,470.767670 
	C844.970703,474.641479 846.261475,478.242981 847.681641,482.205322 
	C849.712585,481.714508 851.706909,481.232544 854.569031,480.540894 
	C851.865723,470.915283 849.219055,461.491364 846.077515,451.412811 
M452.060883,246.167343 
	C452.546692,248.351440 453.032501,250.535538 453.514893,252.704285 
	C456.319916,252.704285 459.059723,252.704285 461.993988,252.704285 
	C461.993988,251.261261 462.130463,250.094315 461.972443,248.968735 
	C460.683746,239.789291 459.311157,230.621628 458.027954,221.441452 
	C457.549225,218.016724 458.141724,215.592499 462.621307,215.898239 
	C464.959137,216.057785 467.368744,215.165588 469.670288,214.761703 
	C470.134155,208.373825 468.568329,206.891098 462.889984,208.057022 
	C461.305450,208.382355 459.727173,208.761124 458.127930,208.987610 
	C450.785889,210.027344 443.437469,211.021805 436.359100,211.995667 
	C436.359100,214.758713 436.359100,216.821121 436.359100,219.177353 
	C440.735687,218.742950 444.715942,218.347885 448.870514,217.935516 
	C449.963501,227.456131 450.985565,236.358963 452.060883,246.167343 
M387.999237,240.691467 
	C386.885681,239.489624 385.628540,237.173721 384.685547,237.295273 
	C381.881653,237.656631 379.131805,238.815414 376.486908,239.955139 
	C370.668762,242.462204 368.548096,246.341461 370.093994,251.991531 
	C371.455994,256.969604 375.509247,257.754730 380.032166,258.106262 
	C382.756592,258.318054 385.399445,259.579376 388.078918,260.369049 
	C388.050476,261.106232 388.022064,261.843384 387.993622,262.580536 
	C384.011597,263.948883 380.029602,265.317200 376.230591,266.622681 
	C376.230591,268.430603 376.230591,270.030487 376.230591,273.160156 
	C381.547760,271.659973 386.445160,270.785736 390.901917,268.880615 
	C395.517883,266.907410 397.426697,261.585693 395.814758,256.713348 
	C394.405518,252.453674 391.160889,251.009659 386.672974,250.846375 
	C383.625305,250.735519 380.630493,249.170181 377.612061,248.255295 
	C377.683990,247.474487 377.755920,246.693680 377.827850,245.912872 
	C380.352692,245.274826 382.933197,244.793198 385.375916,243.924286 
	C386.400391,243.559891 387.133026,242.375107 387.999237,240.691467 
M586.472656,274.948975 
	C594.703186,278.275085 602.315918,275.631958 604.890686,268.218140 
	C608.421143,258.052704 611.649658,247.782333 615.101318,237.271286 
	C612.103638,236.401154 609.374146,235.608887 606.436523,234.756210 
	C603.210022,244.481766 600.397400,253.910797 596.839233,263.049530 
	C595.890991,265.485046 592.861877,268.309326 590.429688,268.695007 
	C586.509338,269.316711 585.898132,271.100952 586.472656,274.948975 
M330.367767,260.073975 
	C325.806396,261.061401 324.144623,264.455109 323.827759,267.067902 
	C321.403168,267.174469 319.636993,266.857147 318.212128,267.413727 
	C316.390015,268.125488 313.760284,268.997925 315.502533,271.976562 
	C320.387787,280.328888 325.334564,288.645264 330.257324,296.976227 
	C333.003937,295.481415 335.487457,294.129761 338.160065,292.675201 
	C336.286285,289.608154 334.655518,287.000702 333.085205,284.357361 
	C327.473602,274.910889 327.517822,274.117950 334.056824,265.874817 
	C333.059021,264.132233 332.021149,262.319580 330.367767,260.073975 
M783.263123,412.943817 
	C786.513367,411.125427 789.698486,409.175049 793.034302,407.530151 
	C795.717896,406.206848 798.745361,404.099945 801.322937,404.461334 
	C803.874329,404.819092 806.053345,407.832825 808.949158,410.118347 
	C810.438965,408.700714 812.207764,407.017609 813.976624,405.334503 
	C811.682678,402.933807 809.388672,400.533081 808.121948,399.207397 
	C807.033752,395.515991 806.210388,392.722778 805.340759,389.772644 
	C797.197998,394.428711 789.951599,398.706573 782.575134,402.746826 
	C776.846191,405.884705 776.742981,408.981750 783.263123,412.943817 
M483.000000,233.901123 
	C483.272461,228.776642 485.248901,226.872940 491.752991,225.490005 
	C491.752991,223.063309 491.752991,220.634460 491.752991,216.875107 
	C487.717621,218.679886 484.383362,220.171082 481.069214,221.653290 
	C481.020660,221.333633 480.848816,220.202301 480.690552,219.160339 
	C473.098511,218.853378 472.376740,219.521988 472.982330,225.249008 
	C473.446350,229.637192 473.671082,234.050735 473.999573,238.453186 
	C474.309082,242.600677 474.615021,246.748428 474.915497,250.801285 
	C478.009247,250.801285 480.278351,250.801285 483.000000,250.801285 
	C483.000000,245.348831 483.000000,240.083160 483.000000,233.901123 
M813.102539,494.670502 
	C813.493103,497.367981 813.883606,500.065460 814.359253,503.350708 
	C819.801270,502.196960 824.974670,501.098145 830.149048,500.003693 
	C835.434143,498.885834 840.720154,497.772247 846.046509,496.648163 
	C845.102722,493.411438 844.308777,490.688812 843.563293,488.132294 
	C833.366699,490.170013 823.556030,492.130615 813.102539,494.670502 
M146.315704,497.050201 
	C143.964706,496.165070 141.613708,495.279938 139.215057,494.376862 
	C138.844681,500.766205 144.189560,506.449615 153.555069,509.826630 
	C155.971634,501.956726 155.972015,501.955963 148.712296,498.302094 
	C148.137070,498.012573 147.551208,497.744171 146.315704,497.050201 
M153.021210,488.521027 
	C149.192871,486.635345 145.364517,484.749695 140.902725,482.552002 
	C140.405823,493.548248 151.009628,493.365204 154.834930,499.502106 
	C158.301315,494.827148 157.815994,491.871033 153.021210,488.521027 
M849.318115,505.008636 
	C847.057617,505.008636 844.797180,505.008636 842.431641,505.008636 
	C844.556763,510.734680 855.400757,515.753174 861.436646,514.354248 
	C862.206482,507.147644 858.352356,505.065277 851.958496,505.896881 
	C851.418518,505.967102 850.790344,505.358459 849.318115,505.008636 
M862.988403,524.448853 
	C863.254150,520.957642 861.936340,517.986023 858.510437,517.328308 
	C853.836060,516.430908 848.992859,516.413147 843.437927,515.953308 
	C844.702332,518.415527 845.224121,521.175049 846.468323,521.552307 
	C851.832642,523.178894 857.408752,524.106995 862.988403,524.448853 
M608.953552,226.295944 
	C606.335083,229.660812 609.430786,231.616135 611.380371,232.471588 
	C612.905396,233.140762 616.302490,232.183762 617.214417,230.833038 
	C618.049316,229.596512 617.203308,225.496765 616.149597,225.084885 
	C614.154358,224.304977 611.479736,225.263260 608.953552,226.295944 
z"/>
<path fill="#CA2228" opacity="1.000000" stroke="none" 
	d="
M406.256439,504.245819 
	C402.209137,507.620941 398.585571,510.981445 394.571991,513.783203 
	C391.626160,515.839600 390.934601,518.296021 390.946869,521.640686 
	C391.042816,547.802124 391.000000,573.964111 391.000000,600.125916 
	C391.000000,601.924805 391.000000,603.723633 391.000000,606.000000 
	C388.840881,606.000000 387.060028,606.000000 385.279205,606.000000 
	C346.953003,606.000000 308.626770,606.000000 270.300568,606.000000 
	C261.410675,606.000000 260.885803,605.875366 260.100372,597.395142 
	C259.082886,586.409119 257.857727,575.344971 258.154053,564.353088 
	C259.011536,532.545715 264.546234,501.621765 277.305511,472.191803 
	C287.550903,448.560242 301.086060,427.133942 317.823425,407.541595 
	C339.882660,381.719513 366.121460,361.422913 396.818542,347.156586 
	C418.024261,337.301361 440.205231,330.040833 463.544586,327.016296 
	C472.954468,325.796875 482.397797,324.558624 491.862732,324.114716 
	C502.526276,323.614594 513.295227,323.251801 523.904907,324.157776 
	C545.336670,325.987885 566.219177,330.863983 586.256470,338.762573 
	C606.093018,346.581909 624.894043,356.402100 642.412170,368.699890 
	C656.457642,378.559875 669.786743,389.268951 681.294373,401.943726 
	C702.377563,425.165344 718.572693,451.378845 729.202698,481.106171 
	C735.345581,498.285339 740.360474,515.739929 742.720459,533.694458 
	C744.693726,548.706482 744.770813,564.024414 744.818359,579.209656 
	C744.843262,587.145630 742.886536,595.075806 742.047180,603.032043 
	C741.700562,606.317078 739.572083,606.000732 737.394836,606.000549 
	C722.730896,605.999329 708.066956,606.000000 693.403015,606.000000 
	C668.907593,606.000000 644.412109,606.000000 619.916687,606.000000 
	C618.118164,606.000000 616.319580,606.000000 614.000000,606.000000 
	C614.000000,603.875427 614.000000,602.098633 614.000000,600.321838 
	C614.000000,576.492920 613.417542,552.642822 614.284485,528.845520 
	C614.634949,519.225464 610.883118,513.531067 603.847961,508.278931 
	C594.039734,500.956573 584.590088,493.152161 575.018860,485.514160 
	C561.739563,474.917023 548.448547,464.333923 535.241333,453.647400 
	C525.569397,445.821442 516.033569,437.827515 506.412170,429.938812 
	C505.046967,428.819458 503.540802,427.872040 502.099152,426.844543 
	C470.101410,452.669739 438.307159,478.330719 406.256439,504.245819 
M420.501648,481.998993 
	C425.597473,477.906311 430.641815,473.747528 435.798218,469.732666 
	C456.643738,453.502014 477.610626,437.424988 498.296295,420.993561 
	C501.352844,418.565643 503.569916,418.696747 506.080811,420.658295 
	C517.402710,429.503235 528.599121,438.508789 539.899231,447.381927 
	C551.828186,456.748840 563.852722,465.994171 575.780823,475.362183 
	C585.671082,483.129730 595.443787,491.047119 605.339294,498.807922 
	C614.543091,506.026215 623.840271,513.125366 633.442688,520.544556 
	C637.730103,515.046692 641.749817,509.905853 645.754150,504.753143 
	C649.273987,500.223999 649.012573,499.608002 644.536621,496.114777 
	C637.451294,490.585083 630.556152,484.810608 623.612488,479.100861 
	C614.132446,471.305450 604.641235,463.522766 595.237793,455.635651 
	C590.852722,451.957733 587.380432,448.329010 587.760742,441.385773 
	C588.552368,426.933960 587.907715,412.407593 588.065491,397.914154 
	C588.104431,394.333801 587.195801,392.787506 583.321899,392.926605 
	C576.166870,393.183533 568.990662,393.164429 561.833923,392.932007 
	C558.150269,392.812347 556.821289,393.987823 556.928101,397.759277 
	C557.161011,405.981262 557.000000,414.214386 557.000000,423.571228 
	C547.567383,416.240601 539.000916,409.546692 530.394348,402.904755 
	C521.881104,396.334839 513.392944,389.727692 504.714813,383.381622 
	C503.531006,382.515991 500.731323,382.294861 499.665833,383.092499 
	C493.776550,387.501129 488.217987,392.349030 482.499115,396.988464 
	C471.832581,405.641754 461.158508,414.286072 450.442047,422.877350 
	C437.576324,433.191681 424.670410,443.455902 411.768036,453.724426 
	C400.656433,462.567780 389.488708,471.341003 378.419586,480.237030 
	C373.368256,484.296692 368.494507,488.577271 363.591309,492.714508 
	C369.597748,499.997162 375.091736,506.658478 380.561920,513.290955 
	C394.024078,502.782745 407.007355,492.648346 420.501648,481.998993 
z"/>
<path fill="#CA2228" opacity="1.000000" stroke="none" 
	d="
M355.000000,618.000000 
	C510.788696,618.000000 666.077393,618.033386 821.366028,617.936279 
	C833.731323,617.928589 845.007568,628.153076 845.004150,641.449829 
	C844.993103,685.103943 845.010437,728.758057 844.993591,772.412170 
	C844.988586,785.280334 834.302307,795.992920 821.451904,795.993469 
	C612.178711,796.002686 402.905548,796.037781 193.632462,795.913208 
	C179.985031,795.905029 170.248840,786.361267 170.134338,772.487427 
	C169.771301,728.503052 169.825012,684.512634 170.113312,640.527161 
	C170.193451,628.298218 179.712173,618.043823 193.045883,618.027405 
	C246.863861,617.961304 300.681946,618.000000 355.000000,618.000000 
M531.058228,770.553223 
	C543.664429,779.278015 557.981445,783.655579 572.943237,784.726746 
	C583.188660,785.460388 593.693115,784.250122 603.942505,782.872864 
	C620.421875,780.658508 634.240967,773.300537 645.273926,760.393616 
	C659.624634,743.605530 662.125610,723.438904 662.858826,702.728210 
	C663.064758,696.910706 661.734741,691.027283 660.986755,685.189819 
	C659.057983,670.136475 652.471252,657.029846 641.820374,646.650940 
	C628.841858,634.003967 612.343628,627.594177 594.425720,626.194519 
	C581.830872,625.210693 569.135315,625.641479 556.634644,628.916504 
	C536.658813,634.150024 521.392944,645.181091 512.088074,663.745667 
	C503.068756,681.740356 501.046570,700.877991 504.006012,720.622620 
	C506.946350,740.239502 514.246033,757.564270 531.058228,770.553223 
M796.914734,774.584045 
	C797.386719,774.113159 797.804443,773.567139 798.338501,773.182312 
	C813.750610,762.073242 821.635315,747.302246 819.955688,728.071716 
	C819.192078,719.329224 816.335571,711.393738 810.259705,704.681091 
	C800.517456,693.918030 787.690613,688.936401 774.305176,685.055969 
	C762.049805,681.503113 749.671021,678.375244 737.343323,675.072571 
	C732.853088,673.869568 730.247742,670.848450 730.090027,666.344116 
	C729.930115,661.775391 731.918396,657.642273 736.478577,656.367432 
	C741.430420,654.983032 746.754578,653.883423 751.822754,654.192749 
	C760.731384,654.736389 768.138611,660.390137 769.842163,669.405762 
	C770.679443,673.836670 773.109924,674.215576 776.518860,673.981995 
	C786.034424,673.330078 795.552124,672.704041 805.062012,671.977051 
	C808.388367,671.722717 811.694580,671.203613 815.263977,670.774902 
	C814.744019,668.185913 814.397461,666.275574 813.974243,664.382263 
	C810.138123,647.222168 800.082092,635.301331 783.232788,630.186401 
	C762.695679,623.951904 741.810059,624.252930 721.071472,629.504211 
	C712.104126,631.774780 703.882385,636.139954 697.716614,643.015259 
	C689.823242,651.816772 685.945190,662.339050 686.926575,674.518921 
	C687.776794,685.071472 692.143799,693.971924 700.128296,700.337280 
	C709.950439,708.167786 721.735962,712.525146 733.793823,716.041626 
	C744.799133,719.251038 755.908875,722.285767 766.570862,726.430786 
	C775.054871,729.729065 775.992126,736.801575 772.808899,745.040894 
	C768.859680,755.262939 756.354736,756.603516 744.924316,754.301270 
	C733.619324,752.024170 728.273865,743.512390 726.227905,733.003906 
	C725.497742,729.253418 723.949646,728.801270 720.970642,728.994812 
	C710.289612,729.688904 699.602539,730.292114 688.924744,731.030457 
	C686.259094,731.214783 683.619629,731.776917 680.736023,732.199402 
	C681.250793,734.812195 681.631714,736.714966 682.000122,738.620239 
	C684.976440,754.013611 691.980347,767.116150 705.424561,775.604065 
	C716.259460,782.444397 729.044861,784.068665 741.456726,784.777344 
	C760.338806,785.855286 779.187500,784.834534 796.914734,774.584045 
M484.063385,748.396973 
	C483.224213,745.946594 482.446625,743.473022 481.536438,741.049316 
	C471.703796,714.866455 461.842468,688.694397 452.006439,662.512756 
	C448.312408,652.679993 444.861633,642.748047 440.838287,633.052917 
	C439.964508,630.947388 437.151031,628.278320 435.164154,628.221985 
	C420.677277,627.810791 406.171265,627.885498 391.677429,628.147339 
	C389.867401,628.179993 387.066742,629.807861 386.458557,631.371094 
	C378.779846,651.106079 371.427917,670.968140 363.975525,690.791321 
	C357.205444,708.799622 350.396210,726.793213 343.639099,744.806335 
	C339.052307,757.033813 334.525604,769.283752 329.861633,781.820312 
	C346.074432,781.820312 361.855530,781.820312 377.840057,781.820312 
	C379.929565,774.433777 381.839569,767.075012 384.210175,759.867737 
	C384.630890,758.588684 386.958130,757.140808 388.421509,757.122925 
	C404.417542,756.927124 420.417786,757.091858 436.414368,756.920959 
	C439.529999,756.887756 440.733429,757.952637 441.490875,760.840454 
	C443.048767,766.779907 445.267426,772.552612 446.683105,778.519958 
	C447.397644,781.531860 448.850616,782.074890 451.495026,782.037292 
	C458.992767,781.930664 466.493011,782.000000 473.992249,782.000000 
	C481.267242,782.000061 488.542206,782.000000 496.593323,782.000000 
	C492.403442,770.539734 488.473114,759.789429 484.063385,748.396973 
M321.044250,781.946838 
	C321.696014,780.586243 322.887115,779.235596 322.912292,777.863586 
	C323.080383,768.703491 322.935181,759.538269 323.030670,750.376099 
	C323.070312,746.569275 321.879272,744.866882 317.629822,744.910278 
	C297.806213,745.112610 277.979340,745.000000 258.153656,745.000000 
	C254.874954,745.000000 251.596252,745.000000 248.000000,745.000000 
	C248.000000,742.669250 248.000000,740.865967 248.000000,739.062683 
	C248.000000,704.076172 247.950699,669.089478 248.060989,634.103333 
	C248.075134,629.620483 246.502396,627.863831 241.959518,627.936462 
	C230.133759,628.125488 218.297943,628.198792 206.476776,627.898865 
	C201.962341,627.784363 200.901764,629.318115 200.913971,633.614014 
	C201.050293,681.595154 200.997757,729.576782 201.011093,777.558289 
	C201.011490,778.985657 201.175781,780.413025 201.273117,781.993958 
	C241.163849,781.993958 280.635864,781.993958 321.044250,781.946838 
z"/>
<path fill="#CA2228" opacity="1.000000" stroke="none" 
	d="
M204.994843,595.142944 
	C204.720505,593.914001 204.209076,593.142761 204.215454,592.375854 
	C204.350616,576.107117 204.348312,559.833191 204.818954,543.573242 
	C205.017181,536.724976 206.245285,529.907043 206.992096,523.073853 
	C208.976257,504.918671 213.570206,487.384094 219.402924,470.123749 
	C230.116150,438.421051 245.784988,409.352448 267.120972,383.641327 
	C279.242676,369.033936 292.024323,354.764526 305.965607,341.924744 
	C328.231628,321.418030 353.818695,305.699982 381.688934,293.523346 
	C403.680695,283.914978 426.583252,277.800598 449.947693,273.182159 
	C459.065735,271.379791 468.446045,270.561859 477.746704,270.104156 
	C492.487518,269.378784 507.314850,268.409485 522.007324,269.253479 
	C537.445801,270.140320 552.924072,272.250671 568.105469,275.243866 
	C590.571777,279.673370 611.937256,287.795013 632.477966,297.924194 
	C649.845520,306.488617 666.505066,316.356445 681.670166,328.380280 
	C694.531799,338.577728 707.290771,349.086792 718.859985,360.689545 
	C736.196472,378.076294 750.612671,397.885529 762.773987,419.306915 
	C776.878784,444.151733 786.877502,470.625366 793.465576,498.293304 
	C796.660767,511.712158 798.154114,525.566040 799.906006,539.288330 
	C801.070129,548.407166 801.812439,557.639709 801.848755,566.824890 
	C801.881836,575.172485 800.681702,583.523071 800.073059,591.875854 
	C799.740845,596.435425 799.508118,601.002380 799.217957,605.773193 
	C793.609375,605.773193 788.517578,605.773193 782.881775,605.773193 
	C793.758545,510.005096 765.244751,427.935303 696.202454,361.005096 
	C637.712219,304.304077 566.373840,279.442780 485.542236,283.221313 
	C402.680878,287.094757 334.908569,322.537445 281.641571,385.885223 
	C228.025879,449.647614 208.991669,523.532532 217.912491,605.738892 
	C214.040710,605.738892 210.279846,605.738892 206.171326,605.738892 
	C205.778870,602.346069 205.388885,598.974365 204.994843,595.142944 
z"/>
<path fill="#CA2228" opacity="1.000000" stroke="none" 
	d="
M529.000000,550.040833 
	C529.000000,567.342224 528.889282,584.149597 529.081726,600.953491 
	C529.127075,604.909912 527.943970,606.135315 523.967285,606.082886 
	C508.518158,605.879333 493.064758,606.000000 477.307220,606.000000 
	C477.307220,584.364197 477.307220,562.992676 477.307220,541.309875 
	C494.301483,541.309875 511.344727,541.309875 529.000000,541.309875 
	C529.000000,544.014038 529.000000,546.779785 529.000000,550.040833 
z"/>
<path fill="#CA2228" opacity="1.000000" stroke="none" 
	d="
M238.803650,329.710815 
	C241.366196,328.692444 241.547562,322.900787 245.699265,326.843903 
	C248.308167,317.249420 250.620911,315.244568 259.588989,314.851166 
	C260.038025,313.290985 260.592926,311.637573 260.986938,309.946747 
	C262.733276,302.452515 270.928558,298.984589 277.066284,303.791046 
	C283.423615,308.769440 289.092957,314.626373 295.058197,320.094482 
	C292.622589,322.637543 290.478882,324.875824 288.335175,327.114075 
	C288.717712,326.603760 289.100250,326.093445 289.482788,325.583130 
	C284.574188,321.470428 279.556763,317.478424 274.803101,313.193817 
	C272.446136,311.069397 270.247498,309.817413 267.503387,312.068817 
	C264.485443,314.544891 264.744293,317.132172 267.367615,319.929413 
	C271.643433,324.488678 275.733582,329.222076 279.890411,333.868896 
	C277.905121,335.730225 275.887360,337.621948 273.551056,339.812378 
	C270.990753,337.216553 267.977264,334.222534 265.038330,331.157074 
	C263.451111,329.501495 262.179230,327.493988 260.425964,326.059875 
	C258.283295,324.307220 255.844543,322.509674 253.108658,325.379913 
	C250.513702,328.102325 250.483780,330.801178 253.056320,333.538177 
	C257.351318,338.107697 261.645050,342.678375 265.956238,347.266602 
	C265.534424,347.813232 265.283447,348.217621 264.957855,348.548584 
	C260.027069,353.560913 259.888794,353.685425 255.011703,348.454315 
	C249.390259,342.424835 244.040436,336.142059 238.803650,329.710815 
z"/>
<path fill="#CA2228" opacity="1.000000" stroke="none" 
	d="
M717.258301,287.351135 
	C710.629639,297.201935 704.206299,306.744629 697.345703,316.936829 
	C694.848267,314.360199 692.907166,312.357574 690.966125,310.354980 
	C682.482056,307.964020 677.618713,304.161743 676.956055,298.507751 
	C675.508789,286.159851 682.629028,279.711029 690.350647,277.307678 
	C696.571411,275.371460 702.726074,278.771149 706.848083,286.342743 
	C709.906921,282.075897 712.847717,277.973816 716.070557,273.478180 
	C718.485046,274.872314 720.687378,276.143951 723.878723,277.986633 
	C721.648865,281.134613 719.556274,284.088806 717.258301,287.351135 
M687.537659,301.021912 
	C690.067505,301.458038 693.487183,303.122131 694.938721,302.070282 
	C697.808533,299.990570 699.993713,296.610565 701.623718,293.349213 
	C702.281738,292.032471 701.322266,288.918915 700.061523,287.869995 
	C698.299622,286.404144 695.290100,285.009583 693.299927,285.511139 
	C687.056946,287.084595 684.292603,294.338806 687.537659,301.021912 
z"/>
<path fill="#CA2228" opacity="1.000000" stroke="none" 
	d="
M560.403381,226.927689 
	C563.321106,233.984650 563.591064,240.851624 559.859436,247.193680 
	C555.897217,253.927551 547.346924,257.553680 536.832642,250.045761 
	C534.021423,254.201782 531.039612,251.046768 528.103699,250.518967 
	C530.123474,235.569870 532.101868,220.927246 534.166992,205.642487 
	C537.372375,206.217590 540.158203,206.717438 542.894409,207.208389 
	C542.190613,212.617599 541.546021,217.571518 540.807983,223.243698 
	C548.418518,220.086975 554.949707,220.237732 560.403381,226.927689 
M539.823120,233.663208 
	C539.548767,235.395706 539.252075,237.125031 539.004395,238.861343 
	C538.400696,243.094086 540.548279,245.945816 544.311707,246.848419 
	C548.437927,247.838028 551.007019,245.317825 552.165161,241.390228 
	C552.479858,240.322983 552.778992,239.248703 553.024109,238.163834 
	C553.935669,234.128708 551.959961,229.285049 548.453003,228.268478 
	C544.436829,227.104309 541.542297,228.959808 539.823120,233.663208 
z"/>
<path fill="#CA2228" opacity="1.000000" stroke="none" 
	d="
M153.981659,449.984985 
	C154.040695,446.997009 154.495026,444.083679 155.056244,440.484924 
	C165.642807,444.459564 175.763123,447.795868 185.476608,452.059113 
	C192.670410,455.216522 194.873993,462.875153 192.185730,471.346405 
	C189.432083,480.023621 183.269348,485.410553 176.089569,483.836823 
	C165.571289,481.531372 155.288086,478.153442 144.568298,475.137878 
	C145.707245,471.544830 146.573944,468.810638 147.426483,466.121124 
	C156.334946,468.921539 165.104050,471.688568 173.880264,474.432983 
	C178.930435,476.012177 183.292816,474.003784 185.006393,469.349701 
	C186.558670,465.133759 184.752945,460.888855 179.953445,459.063049 
	C171.508423,455.850372 162.910736,453.039001 153.981659,449.984985 
z"/>
<path fill="#CA2228" opacity="1.000000" stroke="none" 
	d="
M302.736511,322.341370 
	C296.365356,313.447388 290.289856,304.796204 284.003815,296.300903 
	C281.294739,292.639679 281.567200,290.178131 285.970886,288.477905 
	C286.547943,288.255096 286.961029,287.607574 287.549011,287.065491 
	C288.268555,287.958618 288.966553,288.825043 289.664978,289.689972 
	C293.734955,280.581451 298.393555,277.096588 305.279541,278.008301 
	C311.992767,278.897156 319.333099,285.830933 319.867981,292.600159 
	C320.206116,296.879272 321.451019,301.865112 317.306580,305.139099 
	C314.067444,307.697937 310.304291,309.593445 306.635162,311.869843 
	C307.108276,312.616455 307.934357,313.985168 308.824585,315.310822 
	C310.453186,317.735931 312.119659,320.135620 313.901672,322.737610 
	C311.659241,324.475281 309.356812,326.259460 306.628113,328.373932 
	C305.335022,326.362427 304.140961,324.504913 302.736511,322.341370 
M310.609833,301.885376 
	C312.246246,296.157837 311.171906,290.943756 306.899567,288.675049 
	C304.638611,287.474457 301.119202,287.176056 298.779999,288.070709 
	C297.017090,288.744934 295.189423,292.009369 295.280945,294.035461 
	C295.382660,296.286896 297.557495,298.488037 298.955414,300.629059 
	C302.401184,305.906525 304.794342,306.269897 310.609833,301.885376 
z"/>
<path fill="#CA2228" opacity="1.000000" stroke="none" 
	d="
M223.769730,340.726135 
	C221.666611,343.263000 219.815979,345.537598 217.641861,348.209747 
	C220.088684,350.198486 222.438553,352.108398 225.089951,354.263397 
	C228.580521,350.087677 231.999496,345.997589 236.169861,341.008636 
	C237.413528,343.215393 238.475983,345.100586 239.993622,347.793488 
	C237.718796,350.728271 234.407394,355.000366 230.958282,359.450134 
	C233.875336,361.697754 236.638870,363.827118 239.559464,366.077484 
	C242.572571,362.661652 245.912399,359.771271 248.083237,356.175201 
	C250.497681,352.175598 252.334015,352.233765 255.052872,355.482056 
	C255.512070,356.030701 256.354828,356.258301 257.308746,356.797119 
	C251.433334,363.947357 245.742844,370.872559 239.568604,378.386475 
	C233.877243,373.619415 228.476791,369.022491 222.994812,364.524933 
	C217.441544,359.968811 211.807632,355.510956 205.764786,350.652893 
	C211.348267,343.786194 216.744034,337.150330 222.550079,330.009888 
	C224.414459,331.491852 226.324417,333.010040 228.292465,334.574402 
	C226.675308,336.804749 225.348755,338.634308 223.769730,340.726135 
z"/>
<path fill="#CA2228" opacity="1.000000" stroke="none" 
	d="
M782.307739,337.801697 
	C787.267578,344.876160 787.093262,352.245789 781.841980,356.545685 
	C775.593994,361.661713 768.817200,361.228546 763.082581,356.596069 
	C755.637451,350.581818 755.617981,350.557678 747.890869,356.668488 
	C746.731995,357.584930 745.851379,358.853180 744.886780,359.909576 
	C744.366699,359.614136 744.066833,359.515503 743.863220,359.317780 
	C738.221680,353.838593 738.116821,353.716003 744.200256,348.357361 
	C753.157776,340.467102 762.285095,332.769623 771.735229,324.650574 
	C775.304199,329.118408 778.669128,333.330780 782.307739,337.801697 
M765.037415,342.447906 
	C764.068848,343.483459 763.100281,344.518982 761.022095,346.740784 
	C765.195679,348.706207 768.535461,351.034515 772.152161,351.603699 
	C773.564331,351.825958 776.669312,348.311371 777.117859,346.113892 
	C777.945190,342.061737 775.293457,339.026642 771.904785,336.903809 
	C769.641052,338.706787 767.597595,340.334381 765.037415,342.447906 
z"/>
<path fill="#CA2228" opacity="1.000000" stroke="none" 
	d="
M722.275574,333.999817 
	C712.086243,332.968018 705.699524,324.326691 707.024536,314.668457 
	C708.111938,306.742279 719.005188,299.543091 727.546082,301.017578 
	C734.668518,302.247162 741.548462,311.103607 740.979675,318.497223 
	C740.404114,325.979736 732.880310,335.204437 725.205811,334.016876 
	C724.394226,333.891296 723.546387,334.000000 722.275574,333.999817 
M715.006836,320.390045 
	C716.195190,324.220581 718.334900,327.933594 722.696838,326.408264 
	C725.900391,325.288055 728.489136,322.075806 731.029114,319.480103 
	C733.902954,316.543365 733.398315,312.841736 730.678406,310.508545 
	C727.559143,307.832703 723.416321,308.075745 720.504639,311.185669 
	C718.248474,313.595428 716.809143,316.770020 715.006836,320.390045 
z"/>
<path fill="#CA2228" opacity="1.000000" stroke="none" 
	d="
M208.101959,382.583832 
	C214.951721,386.366577 221.495621,389.868378 229.185318,393.983337 
	C226.623322,396.345093 224.235031,398.033691 222.572327,400.263397 
	C221.499176,401.702515 221.448837,403.925323 221.011002,405.813354 
	C219.570770,412.024048 214.273071,416.106140 209.307297,414.688293 
	C202.279144,412.681610 199.019455,405.887817 201.887772,400.262299 
	C202.829636,398.415009 203.482635,396.348694 203.852692,394.307281 
	C204.091537,392.989716 203.575684,391.535339 203.398041,390.142273 
	C202.037552,390.852692 200.177185,391.227966 199.426682,392.347351 
	C198.101242,394.324249 197.499100,396.775787 196.498642,398.985382 
	C196.040253,399.997742 195.355118,400.907410 194.715515,401.957764 
	C193.172623,401.515015 191.811417,401.124390 189.336792,400.414246 
	C190.643906,396.405518 191.305252,391.952576 193.446426,388.388672 
	C196.525986,383.262878 201.402954,380.528717 208.101959,382.583832 
M208.912643,398.521698 
	C208.610352,399.260406 208.129639,399.977966 208.038910,400.741791 
	C207.756516,403.118958 208.220016,405.431396 211.207932,404.963196 
	C212.878387,404.701477 215.269989,403.456787 215.702438,402.124573 
	C216.441757,399.846985 216.802368,397.139679 213.339279,395.557678 
	C210.348373,394.191376 210.031479,396.164429 208.912643,398.521698 
z"/>
<path fill="#CA2228" opacity="1.000000" stroke="none" 
	d="
M365.289215,255.780487 
	C369.183807,262.111023 369.134308,262.462128 363.121521,265.390808 
	C358.909485,267.442383 354.610504,269.315552 350.340851,271.272736 
	C353.365662,276.738190 355.647369,276.459259 368.754578,269.010498 
	C369.906555,270.685059 371.076111,272.385162 372.398804,274.307892 
	C365.551453,279.753510 358.994781,284.608276 349.786041,282.015167 
	C345.240906,280.735291 339.491608,274.241821 339.049927,269.193329 
	C338.451447,262.352631 339.509613,256.077454 345.985229,251.974731 
	C350.372925,249.194839 358.575439,248.743835 362.908997,253.001190 
	C363.685364,253.763931 364.316650,254.674316 365.289215,255.780487 
M347.415039,264.817261 
	C350.966034,263.450562 354.517059,262.083893 358.068054,260.717194 
	C358.196014,260.211090 358.323944,259.705017 358.451874,259.198944 
	C356.329926,258.282562 354.068878,256.383514 352.115753,256.659943 
	C348.365387,257.190735 346.337311,259.973541 347.415039,264.817261 
z"/>
<path fill="#CA2228" opacity="1.000000" stroke="none" 
	d="
M796.430481,440.051514 
	C794.282593,435.705780 789.122681,433.414368 789.836792,427.278015 
	C790.302429,423.276581 791.490234,420.554901 795.174377,418.937653 
	C798.957581,417.276978 802.614075,417.290405 805.644958,420.228119 
	C808.662354,423.152710 811.322388,426.446106 814.329651,429.789642 
	C817.275269,428.610260 817.653381,426.313202 815.763672,423.435608 
	C814.693359,421.805725 813.088806,420.445984 812.359375,418.699554 
	C811.821472,417.411621 811.832458,415.399078 812.523865,414.282104 
	C812.927368,413.630402 815.976013,413.529907 816.421204,414.167847 
	C819.164124,418.098175 822.289429,422.047211 823.775574,426.495239 
	C825.543579,431.786652 822.866882,436.303223 817.584961,439.021057 
	C811.403015,442.201965 805.071167,445.091370 798.036621,448.476685 
	C797.359741,445.495850 796.772949,442.911499 796.430481,440.051514 
M801.376648,435.055603 
	C803.617920,434.816040 805.859131,434.576447 809.156982,434.223907 
	C807.061279,431.406158 806.217896,429.322998 804.689880,428.478271 
	C803.085571,427.591431 800.825317,427.891174 798.851685,427.672333 
	C798.906250,429.479553 798.822998,431.307129 799.085754,433.083557 
	C799.185974,433.760925 800.079712,434.320892 801.376648,435.055603 
z"/>
<path fill="#CA2228" opacity="1.000000" stroke="none" 
	d="
M171.275635,433.351074 
	C172.975388,431.313446 174.465790,429.614319 175.956177,427.915192 
	C176.290009,428.079926 176.623856,428.244690 176.957687,428.409424 
	C176.957687,425.928864 176.831985,423.440796 176.980392,420.969147 
	C177.500076,412.313843 186.197418,410.278198 192.844482,412.960052 
	C196.142395,414.290649 199.452927,415.596375 202.704041,417.034760 
	C205.809433,418.408661 208.845108,419.940186 211.844299,421.370422 
	C211.844299,421.867676 211.955414,422.239960 211.828156,422.491699 
	C208.080383,429.905243 208.096603,429.861969 200.236679,426.059906 
	C197.180862,424.581665 193.903397,423.538452 190.924255,421.931274 
	C187.690216,420.186554 184.911758,420.965332 183.246658,423.651398 
	C181.289124,426.809235 182.317169,430.047821 185.638153,431.850250 
	C190.626556,434.557678 195.805435,436.913574 200.895248,439.435272 
	C201.603226,439.786041 202.265030,440.229980 203.121017,440.732208 
	C201.866394,443.215424 200.645218,445.632477 199.224136,448.445160 
	C193.745377,445.909027 188.490753,443.445587 183.208374,441.043152 
	C180.118820,439.638000 176.902710,438.485504 173.911850,436.901550 
	C172.728287,436.274719 172.001205,434.785919 171.275635,433.351074 
z"/>
<path fill="#CA2228" opacity="1.000000" stroke="none" 
	d="
M783.704590,370.207672 
	C781.970154,368.311340 779.159546,366.555206 782.299011,364.489288 
	C783.634888,363.610291 786.826294,363.819550 788.051514,364.858582 
	C790.738586,367.137207 793.308716,369.966461 794.847290,373.100708 
	C798.012817,379.549225 795.756165,385.434937 789.219788,389.969696 
	C784.553650,393.207001 779.913940,396.482391 774.124634,400.537781 
	C772.980591,397.920593 771.993286,395.224579 770.628601,392.735443 
	C770.001770,391.592346 768.687805,390.785645 767.593262,389.946594 
	C763.701355,386.963104 761.248413,383.426239 761.951660,378.149170 
	C762.513489,373.932678 765.268188,372.091125 768.762573,370.692169 
	C773.902466,368.634308 777.430298,371.809784 780.963928,374.545288 
	C782.909180,376.051208 784.420349,378.117828 786.115051,379.918671 
	C789.945068,376.462341 789.945068,376.462341 783.704590,370.207672 
M777.036011,386.965363 
	C778.630676,385.889923 780.225342,384.814514 782.170044,383.503052 
	C780.340210,382.095428 778.867493,380.450409 777.029602,379.700226 
	C775.364502,379.020599 773.197449,378.917969 771.462036,379.369324 
	C770.717468,379.562988 769.773560,382.606598 770.176758,382.973175 
	C771.954224,384.589020 774.189575,385.701050 777.036011,386.965363 
z"/>
<path fill="#CA2228" opacity="1.000000" stroke="none" 
	d="
M667.203735,295.601959 
	C666.757446,295.302460 666.611816,295.221558 666.461426,295.150848 
	C658.563599,291.434784 658.668335,291.500427 663.285828,284.127625 
	C665.256348,280.981262 666.634827,277.469177 668.377747,274.173737 
	C670.175415,270.774780 668.619202,268.291138 665.959167,266.596283 
	C663.339417,264.927124 660.699524,265.901520 659.131348,268.441315 
	C656.583923,272.567200 654.376038,276.901489 651.969299,281.116058 
	C651.015076,282.786987 649.912537,284.373230 648.889709,285.978973 
	C646.082092,284.524139 643.661255,283.269714 640.963623,281.871857 
	C646.099426,272.274902 651.086304,262.956207 656.699280,252.467514 
	C659.402039,255.629135 661.247009,257.787354 663.351013,260.248596 
	C668.079773,258.875824 673.016724,260.474762 676.284485,265.020142 
	C679.243530,269.135956 678.718445,273.843353 676.215759,278.425446 
	C673.108337,284.114594 670.389038,290.015717 667.203735,295.601959 
z"/>
<path fill="#CA2228" opacity="1.000000" stroke="none" 
	d="
M509.486816,229.795563 
	C510.875397,229.253250 511.886749,228.869751 513.241577,228.356003 
	C509.385681,222.203522 504.073303,225.614426 499.399933,225.734207 
	C496.083221,221.118881 496.564362,219.569885 502.023590,219.074921 
	C506.307953,218.686493 510.763794,218.431580 514.949158,219.189774 
	C519.374207,219.991394 521.775146,223.663757 521.930786,228.115250 
	C522.179565,235.234055 521.997375,242.367935 521.997375,249.275864 
	C515.443298,249.872101 509.273895,250.688446 503.083099,250.912460 
	C498.473602,251.079224 494.579987,247.033386 494.007599,242.331573 
	C493.515930,238.292984 497.198395,232.550613 501.425446,231.286591 
	C503.898499,230.547073 506.542542,230.379318 509.486816,229.795563 
M508.883636,236.049606 
	C508.137329,236.363800 507.086334,236.470337 506.703400,237.032181 
	C505.665680,238.554810 504.911438,240.270645 504.044769,241.909851 
	C505.687744,242.605133 507.885834,244.308624 508.852844,243.776184 
	C510.618408,242.804062 512.139771,240.689194 512.875732,238.719482 
	C513.842529,236.131805 511.782562,235.788605 508.883636,236.049606 
z"/>
<path fill="#CA2228" opacity="1.000000" stroke="none" 
	d="
M578.758606,227.000275 
	C579.545410,227.003281 579.894043,226.940155 580.207520,227.018250 
	C594.616211,230.608246 596.246948,233.261429 592.998840,247.884460 
	C591.984802,252.449631 590.921509,257.003845 589.905457,261.454926 
	C589.438599,261.675568 589.123230,261.969330 588.868286,261.923889 
	C582.580811,260.804413 576.244446,259.882050 570.039551,258.407806 
	C566.614746,257.594116 563.276794,251.584442 564.088379,248.157349 
	C565.431519,242.485260 568.509827,239.558701 574.557800,239.056519 
	C578.178955,238.755814 581.845398,239.001343 585.531494,239.001343 
	C584.640686,234.205963 584.640686,234.205963 572.219971,232.582474 
	C572.219971,230.873505 572.219971,229.138046 572.219971,227.000031 
	C574.389282,227.000031 576.346680,227.000031 578.758606,227.000275 
M583.993286,247.165466 
	C581.989807,242.883774 578.563538,244.899033 575.960144,245.864716 
	C574.641418,246.353897 574.081116,248.887802 573.177856,250.497284 
	C574.836487,251.331268 576.919922,253.229721 578.063477,252.773270 
	C580.306824,251.877884 582.026794,249.671280 583.993286,247.165466 
z"/>
<path fill="#CA2228" opacity="1.000000" stroke="none" 
	d="
M636.157471,244.631424 
	C643.572083,248.158585 645.587097,252.442520 643.027405,259.750610 
	C640.791687,266.133698 638.222351,272.399933 635.469788,279.580139 
	C632.998291,277.767365 631.084106,275.943512 628.818481,274.843445 
	C627.202148,274.058624 625.116333,274.059570 623.235291,274.031830 
	C614.350952,273.900818 609.777710,266.478668 613.873230,258.591156 
	C616.460022,253.609238 621.241699,253.761826 625.806519,254.078308 
	C628.667419,254.276672 631.478027,255.201096 634.310791,255.799683 
	C635.213379,251.423431 635.213379,251.423431 623.145386,247.462372 
	C623.145386,245.881500 623.145386,244.252426 623.145386,241.469757 
	C627.568726,242.476212 631.716187,243.419891 636.157471,244.631424 
M631.080078,265.383606 
	C631.588501,263.992401 632.096985,262.601196 632.682068,261.000214 
	C630.163086,261.000214 628.028137,260.553894 626.211487,261.123291 
	C624.320190,261.716034 622.736145,263.289276 621.017761,264.433777 
	C622.764099,265.947510 624.315674,267.973755 626.344299,268.744354 
	C627.266052,269.094513 629.132263,266.958344 631.080078,265.383606 
z"/>
<path fill="#CA2228" opacity="1.000000" stroke="none" 
	d="
M403.354187,238.262177 
	C400.167145,240.157074 397.406555,241.479126 396.493683,236.411758 
	C401.299530,230.543121 409.026184,228.093033 415.572723,229.930801 
	C421.165070,231.500717 422.292480,236.221878 423.719025,240.568390 
	C425.475891,245.921402 426.562408,251.494415 427.943726,256.976074 
	C427.787781,257.253510 427.675873,257.717194 427.458588,257.773376 
	C420.627899,259.539886 413.844025,261.567139 406.925201,262.882050 
	C403.050110,263.618469 399.929657,260.936432 399.346619,257.365906 
	C398.708008,253.455017 397.397827,248.815414 402.255981,245.910751 
	C405.997009,243.673981 409.533966,241.095795 413.455353,238.472992 
	C409.937317,234.310028 406.782928,237.222702 403.354187,238.262177 
M409.358734,248.941711 
	C406.322021,250.451889 406.735077,253.048187 408.536835,254.649521 
	C409.624786,255.616486 412.546448,255.615891 414.017120,254.848404 
	C418.212921,252.658798 416.914581,249.280807 415.068848,245.451248 
	C413.211212,246.564926 411.598053,247.532028 409.358734,248.941711 
z"/>
<path fill="#CA2228" opacity="1.000000" stroke="none" 
	d="
M846.324951,451.740112 
	C849.219055,461.491364 851.865723,470.915283 854.569031,480.540894 
	C851.706909,481.232544 849.712585,481.714508 847.681641,482.205322 
	C846.261475,478.242981 844.970703,474.641479 843.582275,470.767670 
	C833.353943,473.629395 823.283142,475.984131 813.564819,479.354858 
	C808.447815,481.129669 808.688965,477.879822 807.552307,475.143097 
	C806.123108,471.702057 808.089294,471.572632 810.734436,470.869446 
	C820.090454,468.382263 829.340271,465.493317 838.613464,462.700806 
	C839.486511,462.437866 840.241333,461.782349 841.144775,461.254242 
	C840.386230,458.419800 840.016602,455.623718 838.889526,453.176453 
	C837.403809,449.950226 838.994568,449.606018 841.537476,448.643433 
	C844.800720,447.408173 845.849121,448.374481 846.324951,451.740112 
z"/>
<path fill="#CA2228" opacity="1.000000" stroke="none" 
	d="
M452.034241,245.714569 
	C450.985565,236.358963 449.963501,227.456131 448.870514,217.935516 
	C444.715942,218.347885 440.735687,218.742950 436.359100,219.177353 
	C436.359100,216.821121 436.359100,214.758713 436.359100,211.995667 
	C443.437469,211.021805 450.785889,210.027344 458.127930,208.987610 
	C459.727173,208.761124 461.305450,208.382355 462.889984,208.057022 
	C468.568329,206.891098 470.134155,208.373825 469.670288,214.761703 
	C467.368744,215.165588 464.959137,216.057785 462.621307,215.898239 
	C458.141724,215.592499 457.549225,218.016724 458.027954,221.441452 
	C459.311157,230.621628 460.683746,239.789291 461.972443,248.968735 
	C462.130463,250.094315 461.993988,251.261261 461.993988,252.704285 
	C459.059723,252.704285 456.319916,252.704285 453.514893,252.704285 
	C453.032501,250.535538 452.546692,248.351440 452.034241,245.714569 
z"/>
<path fill="#CA2228" opacity="1.000000" stroke="none" 
	d="
M387.998779,241.127380 
	C387.133026,242.375107 386.400391,243.559891 385.375916,243.924286 
	C382.933197,244.793198 380.352692,245.274826 377.827850,245.912872 
	C377.755920,246.693680 377.683990,247.474487 377.612061,248.255295 
	C380.630493,249.170181 383.625305,250.735519 386.672974,250.846375 
	C391.160889,251.009659 394.405518,252.453674 395.814758,256.713348 
	C397.426697,261.585693 395.517883,266.907410 390.901917,268.880615 
	C386.445160,270.785736 381.547760,271.659973 376.230591,273.160156 
	C376.230591,270.030487 376.230591,268.430603 376.230591,266.622681 
	C380.029602,265.317200 384.011597,263.948883 387.993622,262.580536 
	C388.022064,261.843384 388.050476,261.106232 388.078918,260.369049 
	C385.399445,259.579376 382.756592,258.318054 380.032166,258.106262 
	C375.509247,257.754730 371.455994,256.969604 370.093994,251.991531 
	C368.548096,246.341461 370.668762,242.462204 376.486908,239.955139 
	C379.131805,238.815414 381.881653,237.656631 384.685547,237.295273 
	C385.628540,237.173721 386.885681,239.489624 387.998779,241.127380 
z"/>
<path fill="#CA2228" opacity="1.000000" stroke="none" 
	d="
M586.267212,274.586914 
	C585.898132,271.100952 586.509338,269.316711 590.429688,268.695007 
	C592.861877,268.309326 595.890991,265.485046 596.839233,263.049530 
	C600.397400,253.910797 603.210022,244.481766 606.436523,234.756210 
	C609.374146,235.608887 612.103638,236.401154 615.101318,237.271286 
	C611.649658,247.782333 608.421143,258.052704 604.890686,268.218140 
	C602.315918,275.631958 594.703186,278.275085 586.267212,274.586914 
z"/>
<path fill="#CA2228" opacity="1.000000" stroke="none" 
	d="
M330.675507,260.290466 
	C332.021149,262.319580 333.059021,264.132233 334.056824,265.874817 
	C327.517822,274.117950 327.473602,274.910889 333.085205,284.357361 
	C334.655518,287.000702 336.286285,289.608154 338.160065,292.675201 
	C335.487457,294.129761 333.003937,295.481415 330.257324,296.976227 
	C325.334564,288.645264 320.387787,280.328888 315.502533,271.976562 
	C313.760284,268.997925 316.390015,268.125488 318.212128,267.413727 
	C319.636993,266.857147 321.403168,267.174469 323.827759,267.067902 
	C324.144623,264.455109 325.806396,261.061401 330.675507,260.290466 
z"/>
<path fill="#CA2228" opacity="1.000000" stroke="none" 
	d="
M782.879089,412.964722 
	C776.742981,408.981750 776.846191,405.884705 782.575134,402.746826 
	C789.951599,398.706573 797.197998,394.428711 805.340759,389.772644 
	C806.210388,392.722778 807.033752,395.515991 808.121948,399.207397 
	C809.388672,400.533081 811.682678,402.933807 813.976624,405.334503 
	C812.207764,407.017609 810.438965,408.700714 808.949158,410.118347 
	C806.053345,407.832825 803.874329,404.819092 801.322937,404.461334 
	C798.745361,404.099945 795.717896,406.206848 793.034302,407.530151 
	C789.698486,409.175049 786.513367,411.125427 782.879089,412.964722 
z"/>
<path fill="#CA2228" opacity="1.000000" stroke="none" 
	d="
M483.000000,234.359299 
	C483.000000,240.083160 483.000000,245.348831 483.000000,250.801285 
	C480.278351,250.801285 478.009247,250.801285 474.915497,250.801285 
	C474.615021,246.748428 474.309082,242.600677 473.999573,238.453186 
	C473.671082,234.050735 473.446350,229.637192 472.982330,225.249008 
	C472.376740,219.521988 473.098511,218.853378 480.690552,219.160339 
	C480.848816,220.202301 481.020660,221.333633 481.069214,221.653290 
	C484.383362,220.171082 487.717621,218.679886 491.752991,216.875107 
	C491.752991,220.634460 491.752991,223.063309 491.752991,225.490005 
	C485.248901,226.872940 483.272461,228.776642 483.000000,234.359299 
z"/>
<path fill="#CA2228" opacity="1.000000" stroke="none" 
	d="
M813.423950,494.380859 
	C823.556030,492.130615 833.366699,490.170013 843.563293,488.132294 
	C844.308777,490.688812 845.102722,493.411438 846.046509,496.648163 
	C840.720154,497.772247 835.434143,498.885834 830.149048,500.003693 
	C824.974670,501.098145 819.801270,502.196960 814.359253,503.350708 
	C813.883606,500.065460 813.493103,497.367981 813.423950,494.380859 
z"/>
<path fill="#CA2228" opacity="1.000000" stroke="none" 
	d="
M146.643005,497.258057 
	C147.551208,497.744171 148.137070,498.012573 148.712296,498.302094 
	C155.972015,501.955963 155.971634,501.956726 153.555069,509.826630 
	C144.189560,506.449615 138.844681,500.766205 139.215057,494.376862 
	C141.613708,495.279938 143.964706,496.165070 146.643005,497.258057 
z"/>
<path fill="#CA2228" opacity="1.000000" stroke="none" 
	d="
M153.346191,488.736328 
	C157.815994,491.871033 158.301315,494.827148 154.834930,499.502106 
	C151.009628,493.365204 140.405823,493.548248 140.902725,482.552002 
	C145.364517,484.749695 149.192871,486.635345 153.346191,488.736328 
z"/>
<path fill="#CA2228" opacity="1.000000" stroke="none" 
	d="
M849.760620,505.036926 
	C850.790344,505.358459 851.418518,505.967102 851.958496,505.896881 
	C858.352356,505.065277 862.206482,507.147644 861.436646,514.354248 
	C855.400757,515.753174 844.556763,510.734680 842.431641,505.008636 
	C844.797180,505.008636 847.057617,505.008636 849.760620,505.036926 
z"/>
<path fill="#CA2228" opacity="1.000000" stroke="none" 
	d="
M862.948059,524.869141 
	C857.408752,524.106995 851.832642,523.178894 846.468323,521.552307 
	C845.224121,521.175049 844.702332,518.415527 843.437927,515.953308 
	C848.992859,516.413147 853.836060,516.430908 858.510437,517.328308 
	C861.936340,517.986023 863.254150,520.957642 862.948059,524.869141 
z"/>
<path fill="#CA2228" opacity="1.000000" stroke="none" 
	d="
M609.020447,225.897644 
	C611.479736,225.263260 614.154358,224.304977 616.149597,225.084885 
	C617.203308,225.496765 618.049316,229.596512 617.214417,230.833038 
	C616.302490,232.183762 612.905396,233.140762 611.380371,232.471588 
	C609.430786,231.616135 606.335083,229.660812 609.020447,225.897644 
z"/>
<path fill="#FFFFFF" opacity="1.000000" stroke="none" 
	d="
M420.246155,482.256470 
	C407.007355,492.648346 394.024078,502.782745 380.561920,513.290955 
	C375.091736,506.658478 369.597748,499.997162 363.591309,492.714508 
	C368.494507,488.577271 373.368256,484.296692 378.419586,480.237030 
	C389.488708,471.341003 400.656433,462.567780 411.768036,453.724426 
	C424.670410,443.455902 437.576324,433.191681 450.442047,422.877350 
	C461.158508,414.286072 471.832581,405.641754 482.499115,396.988464 
	C488.217987,392.349030 493.776550,387.501129 499.665833,383.092499 
	C500.731323,382.294861 503.531006,382.515991 504.714813,383.381622 
	C513.392944,389.727692 521.881104,396.334839 530.394348,402.904755 
	C539.000916,409.546692 547.567383,416.240601 557.000000,423.571228 
	C557.000000,414.214386 557.161011,405.981262 556.928101,397.759277 
	C556.821289,393.987823 558.150269,392.812347 561.833923,392.932007 
	C568.990662,393.164429 576.166870,393.183533 583.321899,392.926605 
	C587.195801,392.787506 588.104431,394.333801 588.065491,397.914154 
	C587.907715,412.407593 588.552368,426.933960 587.760742,441.385773 
	C587.380432,448.329010 590.852722,451.957733 595.237793,455.635651 
	C604.641235,463.522766 614.132446,471.305450 623.612488,479.100861 
	C630.556152,484.810608 637.451294,490.585083 644.536621,496.114777 
	C649.012573,499.608002 649.273987,500.223999 645.754150,504.753143 
	C641.749817,509.905853 637.730103,515.046692 633.442688,520.544556 
	C623.840271,513.125366 614.543091,506.026215 605.339294,498.807922 
	C595.443787,491.047119 585.671082,483.129730 575.780823,475.362183 
	C563.852722,465.994171 551.828186,456.748840 539.899231,447.381927 
	C528.599121,438.508789 517.402710,429.503235 506.080811,420.658295 
	C503.569916,418.696747 501.352844,418.565643 498.296295,420.993561 
	C477.610626,437.424988 456.643738,453.502014 435.798218,469.732666 
	C430.641815,473.747528 425.597473,477.906311 420.246155,482.256470 
z"/>
<path fill="#FFFFFF" opacity="1.000000" stroke="none" 
	d="
M530.801697,770.291260 
	C514.246033,757.564270 506.946350,740.239502 504.006012,720.622620 
	C501.046570,700.877991 503.068756,681.740356 512.088074,663.745667 
	C521.392944,645.181091 536.658813,634.150024 556.634644,628.916504 
	C569.135315,625.641479 581.830872,625.210693 594.425720,626.194519 
	C612.343628,627.594177 628.841858,634.003967 641.820374,646.650940 
	C652.471252,657.029846 659.057983,670.136475 660.986755,685.189819 
	C661.734741,691.027283 663.064758,696.910706 662.858826,702.728210 
	C662.125610,723.438904 659.624634,743.605530 645.273926,760.393616 
	C634.240967,773.300537 620.421875,780.658508 603.942505,782.872864 
	C593.693115,784.250122 583.188660,785.460388 572.943237,784.726746 
	C557.981445,783.655579 543.664429,779.278015 530.801697,770.291260 
M559.056519,740.369263 
	C564.257202,745.333130 570.379517,748.101379 577.537109,749.292603 
	C591.461182,751.609924 607.386963,746.030823 612.060059,730.375183 
	C615.468872,718.955017 615.909180,707.318115 614.846680,695.665527 
	C614.281921,689.471130 612.937500,683.086731 610.545837,677.373840 
	C605.414673,665.117310 589.564209,659.342102 576.940308,661.660217 
	C562.049194,664.394592 554.292786,674.596802 551.810059,687.357422 
	C549.604065,698.695618 549.420044,709.898743 551.131653,721.125183 
	C552.148926,727.797424 553.695007,734.589233 559.056519,740.369263 
z"/>
<path fill="#FFFFFF" opacity="1.000000" stroke="none" 
	d="
M796.589966,774.770813 
	C779.187500,784.834534 760.338806,785.855286 741.456726,784.777344 
	C729.044861,784.068665 716.259460,782.444397 705.424561,775.604065 
	C691.980347,767.116150 684.976440,754.013611 682.000122,738.620239 
	C681.631714,736.714966 681.250793,734.812195 680.736023,732.199402 
	C683.619629,731.776917 686.259094,731.214783 688.924744,731.030457 
	C699.602539,730.292114 710.289612,729.688904 720.970642,728.994812 
	C723.949646,728.801270 725.497742,729.253418 726.227905,733.003906 
	C728.273865,743.512390 733.619324,752.024170 744.924316,754.301270 
	C756.354736,756.603516 768.859680,755.262939 772.808899,745.040894 
	C775.992126,736.801575 775.054871,729.729065 766.570862,726.430786 
	C755.908875,722.285767 744.799133,719.251038 733.793823,716.041626 
	C721.735962,712.525146 709.950439,708.167786 700.128296,700.337280 
	C692.143799,693.971924 687.776794,685.071472 686.926575,674.518921 
	C685.945190,662.339050 689.823242,651.816772 697.716614,643.015259 
	C703.882385,636.139954 712.104126,631.774780 721.071472,629.504211 
	C741.810059,624.252930 762.695679,623.951904 783.232788,630.186401 
	C800.082092,635.301331 810.138123,647.222168 813.974243,664.382263 
	C814.397461,666.275574 814.744019,668.185913 815.263977,670.774902 
	C811.694580,671.203613 808.388367,671.722717 805.062012,671.977051 
	C795.552124,672.704041 786.034424,673.330078 776.518860,673.981995 
	C773.109924,674.215576 770.679443,673.836670 769.842163,669.405762 
	C768.138611,660.390137 760.731384,654.736389 751.822754,654.192749 
	C746.754578,653.883423 741.430420,654.983032 736.478577,656.367432 
	C731.918396,657.642273 729.930115,661.775391 730.090027,666.344116 
	C730.247742,670.848450 732.853088,673.869568 737.343323,675.072571 
	C749.671021,678.375244 762.049805,681.503113 774.305176,685.055969 
	C787.690613,688.936401 800.517456,693.918030 810.259705,704.681091 
	C816.335571,711.393738 819.192078,719.329224 819.955688,728.071716 
	C821.635315,747.302246 813.750610,762.073242 798.338501,773.182312 
	C797.804443,773.567139 797.386719,774.113159 796.589966,774.770813 
z"/>
<path fill="#FFFFFF" opacity="1.000000" stroke="none" 
	d="
M484.303101,748.718018 
	C488.473114,759.789429 492.403442,770.539734 496.593323,782.000000 
	C488.542206,782.000000 481.267242,782.000061 473.992249,782.000000 
	C466.493011,782.000000 458.992767,781.930664 451.495026,782.037292 
	C448.850616,782.074890 447.397644,781.531860 446.683105,778.519958 
	C445.267426,772.552612 443.048767,766.779907 441.490875,760.840454 
	C440.733429,757.952637 439.529999,756.887756 436.414368,756.920959 
	C420.417786,757.091858 404.417542,756.927124 388.421509,757.122925 
	C386.958130,757.140808 384.630890,758.588684 384.210175,759.867737 
	C381.839569,767.075012 379.929565,774.433777 377.840057,781.820312 
	C361.855530,781.820312 346.074432,781.820312 329.861633,781.820312 
	C334.525604,769.283752 339.052307,757.033813 343.639099,744.806335 
	C350.396210,726.793213 357.205444,708.799622 363.975525,690.791321 
	C371.427917,670.968140 378.779846,651.106079 386.458557,631.371094 
	C387.066742,629.807861 389.867401,628.179993 391.677429,628.147339 
	C406.171265,627.885498 420.677277,627.810791 435.164154,628.221985 
	C437.151031,628.278320 439.964508,630.947388 440.838287,633.052917 
	C444.861633,642.748047 448.312408,652.679993 452.006439,662.512756 
	C461.842468,688.694397 471.703796,714.866455 481.536438,741.049316 
	C482.446625,743.473022 483.224213,745.946594 484.303101,748.718018 
M425.458191,708.961975 
	C421.567810,695.916992 417.677460,682.872070 413.787109,669.827087 
	C413.166931,669.818726 412.546722,669.810364 411.926544,669.802002 
	C406.446075,687.660339 400.965576,705.518677 395.350891,723.814392 
	C407.512451,723.814392 418.625488,723.814392 430.058441,723.814392 
	C428.631958,718.919189 427.280273,714.280701 425.458191,708.961975 
z"/>
<path fill="#FFFFFF" opacity="1.000000" stroke="none" 
	d="
M320.576050,781.970398 
	C280.635864,781.993958 241.163849,781.993958 201.273117,781.993958 
	C201.175781,780.413025 201.011490,778.985657 201.011093,777.558289 
	C200.997757,729.576782 201.050293,681.595154 200.913971,633.614014 
	C200.901764,629.318115 201.962341,627.784363 206.476776,627.898865 
	C218.297943,628.198792 230.133759,628.125488 241.959518,627.936462 
	C246.502396,627.863831 248.075134,629.620483 248.060989,634.103333 
	C247.950699,669.089478 248.000000,704.076172 248.000000,739.062683 
	C248.000000,740.865967 248.000000,742.669250 248.000000,745.000000 
	C251.596252,745.000000 254.874954,745.000000 258.153656,745.000000 
	C277.979340,745.000000 297.806213,745.112610 317.629822,744.910278 
	C321.879272,744.866882 323.070312,746.569275 323.030670,750.376099 
	C322.935181,759.538269 323.080383,768.703491 322.912292,777.863586 
	C322.887115,779.235596 321.696014,780.586243 320.576050,781.970398 
z"/>
<path fill="#FFFFFF" opacity="1.000000" stroke="none" 
	d="
M687.261475,300.745941 
	C684.292603,294.338806 687.056946,287.084595 693.299927,285.511139 
	C695.290100,285.009583 698.299622,286.404144 700.061523,287.869995 
	C701.322266,288.918915 702.281738,292.032471 701.623718,293.349213 
	C699.993713,296.610565 697.808533,299.990570 694.938721,302.070282 
	C693.487183,303.122131 690.067505,301.458038 687.261475,300.745941 
z"/>
<path fill="#FFFFFF" opacity="1.000000" stroke="none" 
	d="
M539.921997,233.263733 
	C541.542297,228.959808 544.436829,227.104309 548.453003,228.268478 
	C551.959961,229.285049 553.935669,234.128708 553.024109,238.163834 
	C552.778992,239.248703 552.479858,240.322983 552.165161,241.390228 
	C551.007019,245.317825 548.437927,247.838028 544.311707,246.848419 
	C540.548279,245.945816 538.400696,243.094086 539.004395,238.861343 
	C539.252075,237.125031 539.548767,235.395706 539.921997,233.263733 
z"/>
<path fill="#FFFFFF" opacity="1.000000" stroke="none" 
	d="
M310.325623,302.159241 
	C304.794342,306.269897 302.401184,305.906525 298.955414,300.629059 
	C297.557495,298.488037 295.382660,296.286896 295.280945,294.035461 
	C295.189423,292.009369 297.017090,288.744934 298.779999,288.070709 
	C301.119202,287.176056 304.638611,287.474457 306.899567,288.675049 
	C311.171906,290.943756 312.246246,296.157837 310.325623,302.159241 
z"/>
<path fill="#FFFFFF" opacity="1.000000" stroke="none" 
	d="
M765.295776,342.204956 
	C767.597595,340.334381 769.641052,338.706787 771.904785,336.903809 
	C775.293457,339.026642 777.945190,342.061737 777.117859,346.113892 
	C776.669312,348.311371 773.564331,351.825958 772.152161,351.603699 
	C768.535461,351.034515 765.195679,348.706207 761.022095,346.740784 
	C763.100281,344.518982 764.068848,343.483459 765.295776,342.204956 
z"/>
<path fill="#FFFFFF" opacity="1.000000" stroke="none" 
	d="
M715.006836,319.997345 
	C716.809143,316.770020 718.248474,313.595428 720.504639,311.185669 
	C723.416321,308.075745 727.559143,307.832703 730.678406,310.508545 
	C733.398315,312.841736 733.902954,316.543365 731.029114,319.480103 
	C728.489136,322.075806 725.900391,325.288055 722.696838,326.408264 
	C718.334900,327.933594 716.195190,324.220581 715.006836,319.997345 
z"/>
<path fill="#FFFFFF" opacity="1.000000" stroke="none" 
	d="
M208.979645,398.125061 
	C210.031479,396.164429 210.348373,394.191376 213.339279,395.557678 
	C216.802368,397.139679 216.441757,399.846985 215.702438,402.124573 
	C215.269989,403.456787 212.878387,404.701477 211.207932,404.963196 
	C208.220016,405.431396 207.756516,403.118958 208.038910,400.741791 
	C208.129639,399.977966 208.610352,399.260406 208.979645,398.125061 
z"/>
<path fill="#FFFFFF" opacity="1.000000" stroke="none" 
	d="
M347.234253,264.457642 
	C346.337311,259.973541 348.365387,257.190735 352.115753,256.659943 
	C354.068878,256.383514 356.329926,258.282562 358.451874,259.198944 
	C358.323944,259.705017 358.196014,260.211090 358.068054,260.717194 
	C354.517059,262.083893 350.966034,263.450562 347.234253,264.457642 
z"/>
<path fill="#FFFFFF" opacity="1.000000" stroke="none" 
	d="
M800.994263,434.994995 
	C800.079712,434.320892 799.185974,433.760925 799.085754,433.083557 
	C798.822998,431.307129 798.906250,429.479553 798.851685,427.672333 
	C800.825317,427.891174 803.085571,427.591431 804.689880,428.478271 
	C806.217896,429.322998 807.061279,431.406158 809.156982,434.223907 
	C805.859131,434.576447 803.617920,434.816040 800.994263,434.994995 
z"/>
<path fill="#FFFFFF" opacity="1.000000" stroke="none" 
	d="
M776.647583,386.980469 
	C774.189575,385.701050 771.954224,384.589020 770.176758,382.973175 
	C769.773560,382.606598 770.717468,379.562988 771.462036,379.369324 
	C773.197449,378.917969 775.364502,379.020599 777.029602,379.700226 
	C778.867493,380.450409 780.340210,382.095428 782.170044,383.503052 
	C780.225342,384.814514 778.630676,385.889923 776.647583,386.980469 
z"/>
<path fill="#FFFFFF" opacity="1.000000" stroke="none" 
	d="
M509.308746,236.027924 
	C511.782562,235.788605 513.842529,236.131805 512.875732,238.719482 
	C512.139771,240.689194 510.618408,242.804062 508.852844,243.776184 
	C507.885834,244.308624 505.687744,242.605133 504.044800,241.909851 
	C504.911438,240.270645 505.665680,238.554810 506.703400,237.032181 
	C507.086334,236.470337 508.137329,236.363800 509.308746,236.027924 
z"/>
<path fill="#FFFFFF" opacity="1.000000" stroke="none" 
	d="
M583.978271,247.586380 
	C582.026794,249.671280 580.306824,251.877884 578.063477,252.773270 
	C576.919922,253.229721 574.836487,251.331268 573.177856,250.497284 
	C574.081116,248.887802 574.641418,246.353897 575.960144,245.864716 
	C578.563538,244.899033 581.989807,242.883774 583.978271,247.586380 
z"/>
<path fill="#FFFFFF" opacity="1.000000" stroke="none" 
	d="
M630.825073,265.666809 
	C629.132263,266.958344 627.266052,269.094513 626.344299,268.744354 
	C624.315674,267.973755 622.764099,265.947510 621.017761,264.433777 
	C622.736145,263.289276 624.320190,261.716034 626.211487,261.123291 
	C628.028137,260.553894 630.163086,261.000214 632.682068,261.000214 
	C632.096985,262.601196 631.588501,263.992401 630.825073,265.666809 
z"/>
<path fill="#FFFFFF" opacity="1.000000" stroke="none" 
	d="
M409.671814,248.720428 
	C411.598053,247.532028 413.211212,246.564926 415.068848,245.451248 
	C416.914581,249.280807 418.212921,252.658798 414.017120,254.848404 
	C412.546448,255.615891 409.624786,255.616486 408.536835,254.649521 
	C406.735077,253.048187 406.322021,250.451889 409.671814,248.720428 
z"/>
<path fill="#CA2228" opacity="1.000000" stroke="none" 
	d="
M558.999939,740.002625 
	C553.695007,734.589233 552.148926,727.797424 551.131653,721.125183 
	C549.420044,709.898743 549.604065,698.695618 551.810059,687.357422 
	C554.292786,674.596802 562.049194,664.394592 576.940308,661.660217 
	C589.564209,659.342102 605.414673,665.117310 610.545837,677.373840 
	C612.937500,683.086731 614.281921,689.471130 614.846680,695.665527 
	C615.909180,707.318115 615.468872,718.955017 612.060059,730.375183 
	C607.386963,746.030823 591.461182,751.609924 577.537109,749.292603 
	C570.379517,748.101379 564.257202,745.333130 558.999939,740.002625 
z"/>
<path fill="#CA2228" opacity="1.000000" stroke="none" 
	d="
M425.693390,709.302124 
	C427.280273,714.280701 428.631958,718.919189 430.058441,723.814392 
	C418.625488,723.814392 407.512451,723.814392 395.350891,723.814392 
	C400.965576,705.518677 406.446075,687.660339 411.926544,669.802002 
	C412.546722,669.810364 413.166931,669.818726 413.787109,669.827087 
	C417.677460,682.872070 421.567810,695.916992 425.693390,709.302124 
z"/>
</svg>