<svg xmlns="http://www.w3.org/2000/svg" height="24" viewBox="0 -960 960 960" width="24"><path d="M322.335-289.231q15.05 0 25.203-10.181 10.154-10.181 10.154-25.231 0-15.05-10.181-25.203Q337.331-360 322.281-360t-25.204 10.181q-10.153 10.18-10.153 25.23t10.18 25.204q10.181 10.154 25.231 10.154Zm0-155.385q15.05 0 25.203-10.18 10.154-10.181 10.154-25.231 0-15.05-10.181-25.204-10.18-10.153-25.23-10.153t-25.204 10.18q-10.153 10.181-10.153 25.231 0 15.05 10.18 25.204 10.181 10.153 25.231 10.153Zm0-155.384q15.05 0 25.203-10.181 10.154-10.18 10.154-25.23t-10.181-25.204q-10.18-10.154-25.23-10.154t-25.204 10.181q-10.153 10.181-10.153 25.231 0 15.05 10.18 25.203Q307.285-600 322.335-600Zm121.511 305.384h227.692v-59.999H443.846v59.999Zm0-155.385h227.692v-59.998H443.846v59.998Zm0-155.384h227.692v-59.999H443.846v59.999ZM212.309-140.001q-30.308 0-51.308-21t-21-51.308v-535.382q0-30.308 21-51.308t51.308-21h535.382q30.308 0 51.308 21t21 51.308v535.382q0 30.308-21 51.308t-51.308 21H212.309Zm0-59.999h535.382q4.616 0 8.463-3.846 3.846-3.847 3.846-8.463v-535.382q0-4.616-3.846-8.463-3.847-3.846-8.463-3.846H212.309q-4.616 0-8.463 3.846-3.846 3.847-3.846 8.463v535.382q0 4.616 3.846 8.463 3.847 3.846 8.463 3.846ZM200-760V-200-760Z"/></svg>